<svg width="1372" height="791" viewBox="0 0 1372 791" fill="none" xmlns="http://www.w3.org/2000/svg">
<path d="M627.565 190.068C627.565 192.077 627.565 194.085 627.565 196.496C627.966 197.701 628.368 199.307 628.77 200.512C629.172 200.111 629.574 199.709 629.574 199.307C633.592 197.701 637.611 195.692 642.031 194.085C645.647 192.88 649.264 192.479 651.675 188.462C652.478 187.257 654.89 186.453 656.497 186.052C664.534 183.641 672.169 181.633 680.205 179.624C682.214 179.223 684.626 180.83 686.635 180.83C705.119 180.026 723.202 183.24 740.079 188.863C745.705 186.453 743.696 177.214 751.732 176.411C754.947 182.035 749.723 187.257 751.33 193.684C773.03 203.726 792.318 219.392 809.195 237.87C810.802 235.861 812.008 234.255 813.615 233.451C815.222 232.648 817.633 231.845 818.839 232.648C820.045 233.451 820.848 235.861 820.848 237.468C820.446 240.682 818.839 243.494 818.035 245.502C829.689 264.783 841.342 283.261 852.995 302.141C854.602 300.132 856.612 297.722 858.621 296.115C859.425 295.312 861.836 294.91 863.041 295.714C864.247 296.517 865.452 298.526 865.05 299.731C863.845 303.748 862.639 307.764 860.63 311.38C858.219 315.397 859.023 319.012 860.63 323.029C865.854 339.498 871.078 355.968 875.9 372.839C879.115 384.086 884.338 387.701 895.992 384.086C897.197 383.684 898.403 383.283 899.608 382.881C898.001 390.513 895.992 391.317 879.918 390.112C880.32 394.53 881.124 398.949 881.526 402.966C893.581 483.706 886.348 562.438 855.406 638.358C838.529 679.33 815.624 715.885 781.87 745.61C760.171 764.891 735.659 779.352 707.128 785.779C667.346 794.616 631.181 785.779 597.829 763.686C568.896 744.405 548.001 718.696 531.124 688.971C509.023 649.203 495.762 606.222 489.333 561.634C478.081 483.304 486.118 406.983 515.452 333.473C531.526 293.304 553.627 257.151 586.175 227.828C597.427 217.785 609.482 208.948 623.144 202.119C623.948 200.111 624.752 198.504 625.555 196.496C626.761 194.085 627.163 192.077 627.565 190.068ZM629.574 210.956C628.368 210.956 627.163 210.956 625.957 210.956C619.93 214.973 613.098 218.187 607.473 222.606C571.709 251.126 547.599 288.483 529.918 330.259C511.032 374.044 500.986 419.837 497.771 467.638C494.155 523.474 499.78 578.104 518.265 631.127C533.133 673.707 554.832 711.867 588.988 741.994C623.144 771.72 662.123 784.172 706.727 774.532C736.061 768.105 760.573 752.438 781.87 731.952C804.775 709.859 822.456 683.749 836.118 655.229C875.9 570.472 885.544 481.697 869.069 390.112C868.265 386.095 866.658 383.283 863.041 380.873C850.584 371.634 844.958 358.779 843.753 343.515C843.351 340.302 843.351 336.686 843.351 332.669C828.885 337.49 820.045 329.858 812.811 319.414C809.597 314.593 807.186 309.371 805.177 304.149C801.56 294.509 801.158 284.868 801.56 274.826C801.56 271.612 801.56 267.997 801.56 263.177C798.345 265.185 796.336 266.39 794.327 267.997C779.057 277.637 764.591 275.227 753.741 260.365C750.929 256.348 747.714 251.527 746.91 246.707C744.499 236.263 743.294 225.417 741.686 214.572C741.284 212.162 741.284 209.35 741.284 204.931C736.864 211.358 734.051 216.178 730.435 220.597C724.809 227.024 719.183 233.853 712.754 239.477C703.914 246.707 694.671 245.1 687.438 236.665C681.813 229.836 677.794 222.204 677.794 212.965C677.794 210.555 677.794 208.145 677.794 205.734C675.383 205.734 673.776 206.136 671.767 206.136C672.57 202.521 673.374 198.906 674.58 194.889C665.337 195.29 657.702 200.512 649.264 197.299C648.862 197.299 648.058 197.701 647.656 198.102C642.433 200.914 637.209 203.324 632.387 206.538C631.181 206.94 630.377 209.35 629.574 210.956ZM748.919 204.529C746.91 217.785 748.919 229.033 751.732 240.682C753.741 248.314 757.358 255.143 762.984 260.365C769.011 265.988 776.244 268.399 784.281 264.783C792.72 261.168 799.149 255.544 805.177 248.314C789.505 229.836 771.422 215.375 748.919 204.529ZM682.214 192.479C681.009 207.341 681.813 220.597 691.055 231.845C696.681 238.673 702.306 239.878 709.539 234.656C721.594 225.819 729.229 213.367 737.266 199.709C718.38 192.88 701.101 190.872 682.214 192.479ZM810.802 256.348C805.98 278.441 806.382 298.526 819.241 316.602C821.25 319.414 823.661 321.824 826.474 324.234C832.1 328.652 836.922 328.251 842.146 323.832C846.566 320.217 847.369 318.208 843.351 310.978C834.511 294.91 825.268 279.244 816.428 263.177C815.624 261.168 813.615 259.16 810.802 256.348ZM852.995 331.464C852.191 331.866 851.388 331.866 850.182 332.268C849.379 347.13 852.191 361.19 863.041 372.437C863.845 372.035 864.247 372.035 865.05 371.634C861.434 358.378 857.014 344.72 852.995 331.464Z" fill="#EB1456"/>
<path d="M1309.08 360.386C1309.48 374.044 1309.88 388.103 1310.29 401.761C1311.09 451.972 1311.89 501.782 1312.7 551.994C1312.7 554.002 1312.7 555.609 1313.1 558.823C1319.53 559.224 1325.96 559.626 1332.39 560.028C1341.23 560.429 1350.47 560.429 1359.31 560.429C1367.75 560.429 1368.95 561.233 1370.16 569.267C1370.96 576.095 1371.77 583.326 1371.77 590.556C1371.77 609.034 1371.36 627.914 1370.96 646.392C1370.56 655.631 1370.16 655.631 1360.51 654.425C1356.5 654.024 1352.08 654.425 1348.06 654.827C1336 656.032 1323.95 656.836 1310.69 658.041C1310.29 665.271 1309.08 672.1 1309.08 678.527C1309.08 706.646 1309.08 735.166 1309.48 763.284C1309.48 779.352 1308.68 781.36 1292.6 781.36C1270.5 781.762 1248.4 780.557 1226.3 780.557C1223.89 780.557 1221.88 780.557 1219.47 780.557C1213.04 780.959 1211.84 780.155 1212.64 774.13C1217.46 741.593 1215.05 709.457 1211.03 677.322C1210.23 670.493 1210.23 664.066 1209.83 656.836C1204.2 656.032 1198.57 654.425 1192.95 658.041C1192.15 658.442 1190.94 659.246 1190.54 658.844C1179.29 652.417 1167.23 657.237 1155.98 656.032C1152.36 655.631 1148.34 657.639 1143.12 658.844C1142.32 658.442 1139.91 656.434 1137.09 656.434C1123.83 656.032 1110.17 656.434 1097.71 656.434C1091.28 662.058 1094.5 671.297 1088.07 676.92C1082.85 670.091 1089.68 663.664 1086.86 657.237C1067.98 657.237 1048.29 657.237 1028.2 657.237C1025.78 663.263 1023.37 669.288 1020.56 676.519C1012.93 670.895 1018.55 662.459 1013.33 656.836C996.852 656.836 979.975 656.836 962.696 656.836C961.892 660.049 960.687 662.861 959.883 666.075C959.481 664.468 958.678 663.263 958.276 661.656C958.276 660.451 958.678 659.647 958.678 658.442C958.678 658.041 958.678 657.639 958.678 657.237C957.874 656.434 957.07 656.032 956.669 655.229C955.865 655.229 955.061 655.229 954.258 655.229C952.65 655.229 951.445 655.229 949.837 655.229C948.632 655.229 947.828 655.229 946.623 655.229C938.586 654.425 936.979 653.22 936.979 645.588C936.979 628.315 937.782 611.043 938.184 593.77C938.184 588.548 937.782 583.728 938.184 578.505C938.586 575.292 939.39 572.078 940.595 569.668C945.417 561.634 950.641 554.002 955.865 546.37C983.592 506.602 1011.32 466.835 1039.05 427.067C1040.25 425.059 1041.86 423.05 1043.06 420.64C1043.87 419.435 1044.67 418.23 1045.07 417.427C1045.47 415.82 1046.28 414.615 1046.68 413.008C1052.31 409.794 1055.12 404.572 1057.53 398.949C1063.16 398.547 1068.78 398.145 1074.41 398.145C1072.8 400.957 1071.19 403.769 1069.18 406.179C1030.2 460.408 990.825 515.038 951.847 569.267C950.239 571.677 948.632 574.89 948.632 577.702C947.828 598.992 947.426 620.683 947.024 641.973C947.024 643.981 947.426 645.99 947.828 649.203C953.052 648.4 957.472 647.597 961.491 647.195C962.696 647.195 964.303 647.195 965.509 647.195C965.911 650.007 967.116 652.015 969.527 648.4C972.742 647.998 975.957 647.597 978.77 647.597C988.012 647.195 997.254 647.195 1006.09 647.195C1008.51 647.195 1011.32 647.597 1011.32 643.58C1012.12 642.375 1012.93 640.768 1014.13 639.563C1014.53 640.768 1014.93 641.973 1015.74 643.178C1015.74 643.981 1015.74 644.383 1016.14 644.785C1023.78 647.998 1024.58 647.998 1028.2 641.571C1034.22 631.127 1041.05 621.888 1052.31 615.863C1061.55 611.043 1070.39 611.444 1078.43 617.871C1084.85 622.692 1088.47 629.52 1090.88 636.751C1091.69 639.563 1092.89 642.375 1093.69 645.588C1119.41 621.888 1131.47 621.085 1147.94 643.178C1150.35 641.17 1152.36 638.358 1155.18 636.751C1160.4 633.136 1166.03 629.52 1171.65 627.512C1182.1 623.897 1189.33 627.914 1192.95 637.554C1194.15 639.964 1194.96 642.776 1195.76 645.588C1200.18 645.588 1203.8 645.588 1207.82 645.588C1216.26 645.588 1217.06 646.793 1217.86 654.827C1219.07 666.476 1219.87 677.724 1221.08 689.373C1223.49 714.278 1225.9 739.183 1221.48 764.088C1221.08 766.498 1220.68 768.908 1220.27 771.72C1247.6 771.72 1274.12 771.72 1299.84 771.72C1299.44 746.815 1298.63 722.312 1298.23 697.808C1298.23 687.364 1298.23 676.519 1298.63 666.075C1299.03 654.425 1302.25 650.409 1313.5 648.802C1324.35 647.195 1335.2 646.392 1346.05 645.187C1350.47 644.785 1354.89 644.785 1360.51 644.383C1359.31 619.076 1363.33 594.573 1359.71 570.07C1342.83 569.668 1326.76 569.267 1310.69 568.463C1302.25 568.061 1300.64 566.856 1300.64 558.019C1299.84 526.687 1298.63 495.757 1298.23 464.425C1297.43 433.093 1297.02 402.162 1296.62 370.83C1301.04 367.617 1305.06 364.001 1309.08 360.386ZM1086.06 645.99C1085.66 635.546 1082.04 627.11 1075.21 621.888C1070.79 618.675 1066.37 617.068 1060.74 617.871C1049.89 619.88 1035.43 634.341 1033.42 645.588C1051.1 645.99 1068.38 645.99 1086.06 645.99ZM1141.51 645.99C1137.9 636.349 1131.47 632.734 1123.03 633.136C1114.19 633.537 1107.76 637.554 1102.94 645.99C1116.2 645.99 1128.25 645.99 1141.51 645.99ZM1189.73 645.99C1188.53 638.358 1186.52 633.537 1179.69 631.931C1172.05 630.324 1159.19 638.358 1156.38 645.99C1167.23 645.99 1177.68 645.99 1189.73 645.99Z" fill="#EA1557"/>
<path d="M274.35 730.747C273.547 705.039 272.341 678.929 271.537 651.614C267.519 651.614 263.501 651.614 259.884 651.614C179.919 651.614 99.9529 652.015 19.9874 652.015C15.5672 652.015 11.147 651.614 6.72677 651.212C2.30657 650.81 0.699219 648.4 0.699219 643.981C1.10106 623.897 1.90473 604.214 1.90473 584.129C1.90473 575.694 4.71759 568.865 9.53963 562.036C91.5144 449.16 173.087 335.08 255.062 220.999C258.679 215.777 263.501 211.358 267.519 206.538H267.117C267.921 206.94 268.323 206.94 269.126 207.341C266.313 212.965 263.902 218.99 260.286 224.212C234.568 261.168 208.851 298.124 182.731 334.678C126.474 413.811 69.8152 492.543 13.558 571.275C9.94147 576.095 8.33412 580.916 8.33412 587.343C8.73596 600.599 8.33412 613.854 7.93228 626.709C7.93228 631.127 7.93228 635.546 7.93228 641.17C12.3525 641.17 15.969 641.17 19.5856 641.17C102.364 640.768 184.741 639.964 267.519 639.563C269.126 639.563 270.734 639.563 272.341 639.563C276.359 639.964 279.172 641.973 279.574 645.99C279.976 648.4 280.378 651.212 280.378 653.622C281.181 676.117 281.985 698.612 282.789 721.106C279.976 723.918 277.163 727.534 274.35 730.747Z" fill="#EB195A"/>
<path d="M369.585 213.768C370.388 223.409 371.192 233.05 371.192 242.69C371.996 337.891 372.799 432.691 373.603 527.892C373.603 536.729 373.603 545.968 373.603 554.806C373.603 556.814 374.005 558.421 374.407 560.831C378.023 560.831 381.64 560.831 385.256 560.831C398.115 560.429 410.974 560.028 423.833 560.028C431.869 560.028 433.075 560.831 433.477 568.463C434.28 592.966 435.084 617.068 435.486 641.571C435.486 648.4 430.664 652.819 423.029 652.819C408.965 653.22 394.9 653.622 380.434 654.024C378.425 654.024 376.014 654.425 373.603 654.827C373.201 657.237 373.201 658.844 373.201 660.853C373.201 679.33 373.201 698.21 373.201 716.688C373.201 719.098 373.603 721.91 374.005 724.32C374.005 727.534 368.379 729.542 372.799 733.157C372.799 743.601 373.201 754.045 373.201 764.489C373.201 771.318 371.996 772.523 365.165 773.327C359.941 773.728 354.315 774.13 349.091 774.532C347.484 770.515 345.475 766.498 343.867 762.481C350.297 762.079 356.726 762.079 363.557 761.677C363.959 758.062 364.361 755.25 364.361 752.439C364.763 724.722 364.763 697.005 365.165 669.69C365.165 663.664 365.968 657.639 367.174 651.614C367.977 647.195 370.79 644.785 376.014 645.187C391.284 645.588 406.152 645.588 421.422 645.588C423.431 645.588 425.842 645.187 427.851 645.187C427.851 620.282 427.851 596.18 427.851 571.275C424.636 571.275 422.627 571.275 420.618 571.275C406.956 571.275 392.891 571.677 379.229 571.275C374.407 571.275 369.585 571.677 366.772 568.463C366.772 561.634 366.772 556.011 366.772 549.985C366.37 499.774 365.968 449.562 365.566 399.752C365.566 338.695 365.566 277.637 365.968 216.58C365.968 215.777 367.576 214.572 369.585 213.768Z" fill="#EA1658"/>
<path d="M1158.79 256.348C1169.24 241.887 1180.09 227.426 1190.14 212.563C1194.56 205.734 1199.78 202.119 1207.82 201.718C1237.95 200.111 1268.09 198.504 1298.23 197.299C1306.27 196.897 1307.87 199.709 1305.46 208.145C1305.06 209.751 1304.66 211.76 1304.66 213.768C1305.06 222.204 1305.46 230.238 1305.87 238.673C1305.46 239.477 1305.46 239.878 1305.06 240.682C1305.46 246.707 1306.27 253.134 1306.67 259.16C1304.66 265.587 1301.45 271.21 1295.82 275.227C1295.82 253.938 1295.42 232.648 1295.42 210.956C1290.19 210.956 1286.18 210.956 1281.76 210.956C1258.85 211.358 1236.35 212.162 1213.44 212.162C1207.82 212.162 1204.6 213.768 1201.39 218.187C1189.73 234.656 1178.08 251.126 1166.43 267.595C1155.98 282.056 1145.93 296.115 1135.49 310.175C1133.88 304.551 1132.67 298.927 1131.07 293.304C1136.69 286.073 1141.92 278.441 1147.54 271.21C1149.95 267.997 1152.36 264.783 1154.37 261.57C1154.77 261.168 1155.18 260.365 1155.58 259.963C1157.19 258.758 1157.99 257.553 1158.79 256.348Z" fill="#EB1456"/>
<path d="M342.663 762.882C344.27 766.899 346.28 770.916 347.887 774.933C349.093 777.343 350.7 779.754 353.111 784.574C349.494 782.967 347.485 782.967 346.28 781.762C339.85 774.933 336.234 766.899 335.028 757.66C334.626 754.849 334.225 752.037 334.225 749.225C325.384 751.635 322.571 754.849 312.124 773.326C310.516 771.72 308.909 770.113 308.105 768.506C301.676 755.25 299.265 741.191 300.068 726.328C300.068 723.115 300.068 719.901 300.068 715.081C290.023 720.705 284.397 727.935 279.173 735.166C273.949 742.396 269.931 750.028 265.109 758.464C257.876 751.233 256.268 742.396 253.053 734.362C249.839 725.927 247.83 717.491 243.409 708.654C243.008 711.867 241.802 715.483 241.802 718.696C241.802 731.55 242.606 744.405 243.008 757.259C243.008 761.677 243.008 766.498 243.008 773.326C236.176 768.104 231.354 763.686 226.13 759.669C220.907 755.652 215.683 752.438 210.459 748.823C208.048 748.823 205.637 748.823 203.226 748.823C201.217 744.405 203.226 742.396 207.244 743.2C211.262 744.003 215.281 746.011 218.496 748.02C224.121 751.233 228.943 755.25 234.167 758.464C238.186 757.259 236.98 754.447 236.98 752.037C236.98 738.781 236.98 725.927 237.382 712.671C237.784 707.047 239.391 701.423 240.597 695.8C240.998 694.193 242.606 692.586 244.213 689.373C251.848 708.654 254.661 728.337 263.903 746.413C267.921 740.388 271.538 735.166 274.753 729.944C277.566 726.73 280.378 723.115 283.191 719.901C290.826 714.679 296.05 705.842 307.301 702.227C306.9 707.047 306.096 710.662 306.096 714.679C306.096 725.525 306.096 736.371 306.498 747.216C306.9 752.037 307.703 757.259 311.722 760.874C326.992 742.798 332.215 738.781 340.252 739.584C340.654 747.618 341.458 755.25 342.663 762.882Z" fill="#1D1C1C"/>
<path d="M1296.22 274.826C1301.85 270.809 1305.06 265.185 1307.07 258.758C1308.28 255.143 1309.88 251.929 1310.29 248.314C1310.69 244.699 1309.88 241.083 1305.46 240.28C1305.46 239.477 1305.87 239.075 1306.27 238.272C1313.1 240.682 1315.51 244.297 1313.9 251.929C1312.3 260.766 1308.68 269.202 1302.25 276.031C1293.01 285.671 1283.36 294.91 1274.12 304.953C1265.68 313.79 1258.05 323.029 1250.41 332.669C1247.2 336.686 1243.98 341.507 1246.8 347.934C1254.03 345.122 1258.05 337.088 1268.49 337.891C1265.68 340.302 1264.07 341.908 1262.47 343.113C1258.45 347.13 1253.63 350.746 1250.01 355.164C1245.59 360.788 1247.6 367.215 1254.43 372.035C1260.06 376.454 1266.49 376.454 1270.5 371.634C1272.92 369.223 1274.52 365.608 1276.13 362.796C1277.34 360.788 1278.54 358.779 1281.76 357.574C1281.35 359.583 1281.35 361.591 1280.95 363.6C1280.55 365.207 1280.15 367.215 1279.34 368.822C1282.96 371.232 1284.97 368.822 1287.38 367.617C1305.06 358.378 1317.92 344.319 1328.37 327.849C1331.18 323.431 1333.99 319.012 1338.01 312.986C1338.41 324.234 1322.74 348.737 1308.68 360.386C1304.66 364.001 1300.64 367.617 1296.22 371.232C1284.57 377.659 1272.92 383.283 1260.06 382.881C1258.05 385.693 1256.04 387.701 1254.43 389.71C1254.03 389.308 1253.63 389.308 1253.23 388.906C1253.63 386.496 1254.03 383.684 1254.43 381.274C1252.02 380.069 1250.41 378.061 1248.4 377.659C1246.8 377.257 1244.79 378.864 1242.38 379.668C1243.98 372.839 1242.38 367.215 1239.16 366.813C1237.15 368.018 1235.14 369.224 1231.93 370.83C1232.33 368.822 1232.33 367.617 1233.13 367.215C1237.96 363.198 1238.76 357.976 1237.96 351.951C1237.15 343.515 1239.16 335.481 1244.79 328.653C1253.23 319.012 1261.66 309.371 1270.5 300.132C1279.34 291.295 1287.78 283.261 1296.22 274.826ZM1247.2 349.139C1247.2 348.737 1246.8 348.335 1246.8 348.737C1246.39 348.737 1245.99 349.139 1245.59 349.139C1245.59 349.541 1245.99 349.942 1245.99 349.541C1246.39 349.541 1246.8 349.139 1247.2 349.139Z" fill="#1D1C1C"/>
<path d="M998.46 371.232C981.985 367.215 966.715 359.583 952.249 350.746C946.222 347.13 946.222 342.712 952.249 339.096C957.473 335.883 963.099 333.071 968.725 331.464C977.967 328.251 987.611 326.242 998.059 323.43C998.862 312.585 1001.68 301.337 1007.7 291.295C1019.76 270.005 1025.38 263.98 1051.5 253.134C1049.9 243.092 1047.48 233.451 1047.08 223.409C1046.68 213.367 1048.29 202.923 1049.09 192.88C1061.95 192.88 1075.21 205.333 1085.66 226.622C1098.12 227.024 1110.97 225.016 1122.23 233.05C1121.02 233.853 1120.22 234.255 1119.01 235.058C1110.97 233.853 1103.34 232.648 1095.3 231.443C1090.48 230.639 1086.46 231.443 1084.05 237.468C1082.04 233.05 1080.84 229.434 1079.23 226.622C1077.62 223.409 1075.61 220.597 1073.6 217.785C1067.58 208.145 1063.16 204.529 1055.92 202.923C1056.32 204.931 1056.73 206.538 1056.73 208.546C1056.73 210.555 1059.54 212.563 1056.32 214.17C1055.12 214.17 1053.91 214.17 1052.31 214.17C1051.5 227.426 1052.31 240.28 1057.93 252.732C1056.73 253.536 1055.52 254.339 1054.32 255.544C1053.51 255.544 1051.9 254.741 1051.5 255.143C1050.3 256.348 1049.09 257.954 1047.89 259.561C1045.88 260.766 1043.87 261.57 1041.86 262.775C1016.54 276.031 1006.5 298.525 1001.68 324.636C1004.49 327.046 1006.5 329.054 1008.51 331.063C1008.51 331.866 1008.1 332.669 1008.1 333.473C999.264 332.268 990.424 330.661 982.387 334.276C972.743 336.285 963.501 339.096 954.66 344.72C963.902 346.327 971.939 347.934 980.378 349.139C978.77 349.942 977.163 350.746 975.154 351.549C971.537 351.549 967.519 351.147 961.893 350.746C972.743 357.173 981.583 361.993 992.031 364.805C995.246 366.813 998.46 368.42 1001.68 370.429C1000.87 370.027 999.666 370.429 998.46 371.232Z" fill="#1F1F1F"/>
<path d="M369.585 213.768C367.576 214.973 365.969 215.777 363.959 216.982C358.334 211.358 351.101 213.768 344.269 212.965C343.466 217.384 346.279 221.802 341.055 225.016C339.849 220.597 338.644 216.982 337.84 212.965C339.046 211.358 339.849 209.35 341.055 207.341C341.457 206.94 342.26 206.94 342.662 206.538H343.466L343.868 205.734C347.484 204.128 351.502 201.718 354.315 206.538C356.325 204.931 357.932 203.324 359.941 201.316C361.95 204.931 363.558 207.743 365.969 212.162C369.183 206.538 371.996 202.119 373.603 197.701C379.229 181.633 380.837 165.163 378.426 148.694C377.22 139.455 374.005 130.216 371.996 120.977C371.192 116.96 368.781 117.764 366.37 118.969C365.567 118.165 364.763 117.764 363.959 116.96C367.174 114.148 370.389 111.738 373.603 108.926C375.613 109.328 377.22 109.73 379.229 110.132C384.051 108.123 388.873 106.115 394.097 104.106C391.284 99.6875 392.892 93.6621 386.864 91.252C385.659 91.252 384.453 91.252 383.649 91.252C390.481 63.1335 373.202 44.6556 351.101 42.2454C343.466 41.4421 335.429 43.4505 327.392 44.2539C327.392 43.4505 327.392 42.2455 327.392 41.4421C326.589 38.6302 326.187 35.8184 324.981 33.4082C321.365 26.1777 318.15 26.1777 312.524 32.6048C311.319 28.5879 312.122 24.9727 315.337 23.7676C317.748 22.9642 321.365 24.1693 324.178 25.3743C325.785 26.1777 326.589 28.1862 327.794 29.3913C328.196 28.5879 328.598 28.1862 329.401 27.3828C330.607 28.1862 332.214 28.9896 332.616 29.793C333.018 32.2031 332.616 34.6133 332.616 37.0234C341.055 37.4251 349.091 37.0234 356.726 39.0319C374.407 43.0488 385.659 54.2962 388.471 72.3724C389.677 80.0046 392.088 86.4317 394.901 93.2605C396.91 97.6791 398.116 102.098 400.125 107.32C391.284 110.533 383.649 112.943 375.613 115.755C386.462 149.497 388.873 182.035 369.585 213.768Z" fill="#262323"/>
<path d="M267.117 206.538C253.455 194.487 250.24 178.419 250.642 161.147C251.445 134.635 261.491 112.14 281.985 95.2689C282.789 96.0723 283.592 96.474 284.396 97.2774C281.181 100.491 277.967 103.704 275.154 107.32C257.875 129.011 251.044 153.514 257.071 181.231C257.473 182.838 258.277 186.052 258.679 186.052C265.108 186.052 263.099 191.274 264.706 194.487C265.912 196.496 266.313 198.906 267.519 202.521C269.528 198.906 271.135 196.897 272.743 194.085C275.958 197.701 278.369 200.914 281.181 204.529C283.191 201.718 284.798 199.709 286.405 197.299C292.031 204.128 300.47 202.521 307.301 204.529C306.899 205.734 306.899 206.94 306.497 208.145C302.479 207.743 298.46 207.341 294.844 206.94C293.638 206.94 292.433 206.94 291.227 206.94C286.807 204.128 283.592 208.145 279.976 208.546C277.565 206.94 275.556 205.333 273.547 203.726C271.537 204.128 269.528 205.333 267.117 206.538Z" fill="#262323"/>
<path d="M371.595 733.559C367.174 729.944 372.8 727.534 372.8 724.722C378.828 718.295 384.453 712.269 394.901 708.252C392.088 717.09 390.079 724.32 387.266 732.756C394.901 731.952 400.527 727.534 407.358 730.345C404.947 735.567 401.732 740.789 400.929 746.011C399.723 751.635 400.527 757.259 400.527 764.088C394.901 757.661 394.901 757.661 396.91 735.567C392.49 737.978 388.472 739.986 382.846 742.798C383.248 735.166 383.65 728.739 383.65 722.713C382.846 722.312 382.444 722.312 381.641 721.91C378.426 725.927 374.809 729.542 371.595 733.559Z" fill="#262323"/>
<path d="M1346.05 304.149C1350.07 276.031 1351.27 248.716 1321.54 231.845C1330.78 230.238 1338.41 234.255 1343.64 243.494C1350.87 255.544 1354.09 268.8 1353.28 282.86C1352.88 290.492 1350.87 297.722 1346.05 304.149Z" fill="#313131"/>
<path d="M1042.66 420.238C1041.46 422.247 1039.85 424.255 1038.64 426.666C1033.02 421.042 1027.79 415.418 1021.77 408.991C1020.96 411 1020.16 413.008 1018.95 415.418C1014.13 412.205 1012.12 407.384 1009.71 402.564C1010.51 401.761 1010.92 400.957 1011.72 400.154C1012.93 401.359 1013.73 402.966 1015.34 404.974C1016.54 401.761 1017.35 398.949 1018.15 396.539C1019.76 397.342 1022.17 398.145 1022.97 399.752C1024.98 402.564 1026.19 405.376 1028.2 408.589C1030.2 411.401 1031.01 415.418 1036.23 416.222C1035.43 412.205 1034.62 409.393 1034.22 406.179C1035.83 405.778 1037.44 404.974 1039.04 404.572C1041.86 407.384 1044.27 410.196 1047.08 413.41C1046.68 415.016 1045.88 416.222 1045.47 417.828C1044.27 417.427 1043.06 417.025 1041.86 416.623C1041.46 417.427 1042.26 419.033 1042.66 420.238Z" fill="#262323"/>
<path d="M363.559 116.96C364.362 117.764 365.166 118.165 365.97 118.969C361.951 121.379 357.933 124.191 353.513 125.798C326.188 135.037 299.667 120.174 294.845 95.6707C294.443 94.0639 293.237 92.4571 292.434 91.252C292.434 90.4487 292.434 89.2436 292.434 88.4402C293.237 87.6368 293.639 86.8334 294.443 86.03C295.648 86.8334 296.854 87.2351 298.059 88.0385C298.059 90.047 298.461 91.6537 298.461 93.6622C298.863 94.8673 298.863 96.474 299.265 97.6791C305.292 113.747 316.946 122.986 333.823 124.593C344.672 125.396 354.316 121.781 363.559 116.96Z" fill="#313131"/>
<path d="M1118.61 234.255C1119.82 233.451 1120.62 233.05 1121.83 232.246C1125.84 233.853 1129.46 235.058 1133.48 236.665C1135.89 237.87 1139.1 238.272 1137.9 242.69C1137.5 243.494 1139.91 245.1 1141.51 246.305C1147.14 249.921 1153.17 253.134 1158.79 256.348C1157.99 257.553 1157.19 258.758 1156.38 259.963C1150.76 257.151 1144.73 254.339 1139.1 251.527C1133.48 249.921 1127.85 247.912 1122.23 246.305C1119.82 245.904 1117.81 245.904 1117.81 242.69C1120.22 241.485 1123.03 240.28 1127.45 237.87C1123.03 236.665 1120.62 235.861 1118.21 235.058L1118.61 234.255Z" fill="#262323"/>
<path d="M202.02 748.823C204.431 748.823 206.842 748.823 209.253 748.823C210.458 751.635 211.262 754.849 212.869 757.259C217.289 764.489 222.111 771.72 226.532 779.352C228.541 782.565 229.344 786.181 230.952 789.394C230.148 789.796 229.344 790.198 228.541 790.599C224.121 783.771 220.102 776.54 215.682 769.711C211.262 762.883 206.44 756.054 202.02 748.823Z" fill="#262323"/>
<path d="M297.658 87.6368C296.452 86.8334 295.247 86.4317 294.041 85.6284C294.845 67.5522 304.489 54.698 319.357 45.4591C321.768 43.8523 324.581 43.0489 326.992 41.4421C326.992 42.2455 326.992 43.4506 326.992 44.254C309.713 53.8946 298.461 67.1505 297.658 87.6368Z" fill="#444444"/>
<path d="M328.196 27.7845C330.607 21.7591 332.616 15.7337 335.429 10.11C337.438 5.69141 340.653 1.67448 346.279 0.871094C339.448 8.90495 335.027 17.3405 332.616 27.7845C331.813 30.9981 329.804 30.9981 328.196 27.7845Z" fill="#444444"/>
<path d="M292.031 786.582C291.227 787.787 290.423 788.993 288.816 790.599C281.985 782.967 277.564 774.532 275.957 762.481C282.788 766.096 281.181 772.523 284.396 775.737C286.003 778.95 287.208 782.565 289.218 785.779C289.218 786.984 291.227 786.582 292.031 786.582Z" fill="#313131"/>
<path d="M1011.32 400.154C1010.52 400.957 1010.11 401.761 1009.31 402.564C1003.28 394.932 1000.07 386.095 999.666 376.454C999.666 374.847 998.863 372.839 998.461 371.232C999.666 370.83 1000.87 370.027 1002.08 369.625C1002.88 369.625 1003.28 369.625 1004.09 369.625C1004.09 370.83 1004.09 372.035 1004.09 373.24C1003.28 381.676 1005.69 389.308 1010.52 396.539C1010.52 397.342 1010.92 398.949 1011.32 400.154Z" fill="#444444"/>
<path d="M292.031 786.582C290.424 782.967 288.816 779.754 287.209 776.138C287.209 774.933 287.209 773.327 287.209 772.122C287.611 772.122 288.013 771.72 288.816 771.72C291.629 776.942 294.442 782.164 297.657 788.189C295.246 787.386 293.638 786.984 292.031 786.582Z" fill="#444444"/>
<path d="M627.565 190.068C627.163 192.077 626.36 194.085 625.958 196.094C625.154 198.102 624.351 199.709 623.547 201.718C624.752 196.094 622.341 190.068 627.565 184.846C627.565 186.453 627.565 188.06 627.565 190.068Z" fill="#E52F68"/>
<path d="M957.474 661.656C957.876 663.263 958.679 664.468 959.081 666.075C958.679 668.485 958.277 670.895 957.876 675.313C954.661 669.288 955.465 665.271 957.474 661.656Z" fill="#E52F68"/>
<path d="M292.433 88.0385C292.433 88.8418 292.433 90.0469 292.433 90.8503C290.022 92.8588 287.209 95.2689 284.798 97.2774C283.994 96.474 283.19 96.0723 282.387 95.2689C285.601 92.8588 288.816 90.4486 292.433 88.0385Z" fill="#444444"/>
<path d="M287.209 776.138C288.817 779.754 290.424 783.369 292.031 786.984C290.826 786.984 289.219 786.984 289.219 786.582C287.611 783.369 286.004 779.754 284.396 776.54C285.2 776.138 286.406 776.138 287.209 776.138Z" fill="#C6C6C6"/>
<path d="M629.574 198.906C629.172 199.307 628.77 199.709 628.77 200.111C628.368 198.906 627.966 197.299 627.564 196.094C628.368 196.897 629.172 198.102 629.574 198.906Z" fill="#E52F68"/>
<path d="M953.053 654.827C953.856 654.827 954.66 654.827 955.464 654.827C954.66 655.229 953.856 654.827 953.053 654.827Z" fill="#E52F68"/>
<path d="M957.875 657.237C957.875 657.639 957.875 658.041 957.875 658.442L957.473 657.639L957.875 657.237Z" fill="#E52F68"/>
<path d="M329 27.7845C328.598 28.5879 328.196 28.9896 327.393 29.793C327.393 29.3913 327.794 28.9896 327.794 28.1862C327.794 27.7845 327.794 27.7845 327.794 27.3828C328.196 27.7845 328.598 27.7845 329 27.7845Z" fill="#444444"/>
<path d="M677.795 212.162C677.795 221.4 681.412 229.033 687.439 235.861C694.672 244.699 703.914 245.904 712.755 238.673C719.586 233.451 724.81 226.221 730.436 219.794C734.052 215.375 736.865 210.555 741.285 204.128C741.687 208.546 741.285 211.358 741.687 213.768C743.294 224.614 744.5 235.46 746.911 245.904C748.117 250.724 750.929 255.544 753.742 259.561C764.19 274.424 778.656 276.834 794.328 267.193C796.337 265.988 798.346 264.382 801.561 262.373C801.561 267.193 801.561 270.407 801.561 274.022C801.159 284.065 801.963 294.107 805.177 303.346C807.187 308.568 809.598 314.192 812.812 318.61C820.045 329.054 828.484 336.686 843.352 331.866C843.754 335.883 843.754 339.498 843.754 342.712C844.959 357.976 850.585 370.83 863.042 380.069C866.257 382.479 868.266 385.291 869.069 389.308C885.143 481.296 875.901 569.668 836.119 654.425C822.456 683.347 804.776 709.056 781.871 731.149C760.573 752.037 736.061 767.301 706.727 773.728C661.722 783.369 622.743 770.916 588.989 741.191C554.833 711.064 532.732 672.903 518.266 630.324C499.781 577.3 494.156 522.67 497.772 466.835C500.987 419.435 511.033 373.24 529.919 329.456C548.002 288.081 572.112 250.724 607.474 221.802C613.099 217.384 619.529 214.17 625.958 210.153C628.369 216.178 629.976 223.007 633.593 228.229C640.022 237.468 650.872 238.673 659.311 231.041C663.731 227.024 666.945 221.802 670.562 216.982C672.571 214.17 673.777 211.358 675.384 208.145C676.59 210.555 676.991 211.358 677.795 212.162ZM571.71 496.158C571.71 519.055 573.719 541.55 577.738 564.044C583.363 594.573 592.606 623.897 608.679 650.81C617.921 666.074 628.771 679.732 643.639 690.176C668.955 708.252 697.485 709.457 724.006 692.988C730.034 688.971 736.061 684.552 741.285 679.33C761.377 659.647 775.04 635.546 784.282 609.436C807.187 545.968 810.803 480.894 798.346 415.016C792.72 384.889 783.076 355.968 767.003 329.456C756.555 312.585 744.098 297.722 726.417 287.68C715.97 281.654 705.12 278.441 691.859 278.843C668.553 279.646 650.47 289.287 634.397 304.551C617.52 321.02 605.866 340.703 596.624 362.395C578.943 405.376 572.112 450.365 571.71 496.158Z" fill="#FEFCFD"/>
<path d="M748.921 204.529C771.423 215.375 789.104 229.836 805.178 248.314C799.15 255.544 792.721 261.168 784.282 264.783C776.245 267.997 769.012 265.988 762.985 260.365C757.359 255.143 753.743 248.314 751.733 240.682C748.921 229.033 746.911 217.384 748.921 204.529Z" fill="#FDF6F9"/>
<path d="M682.215 192.479C701.101 190.872 718.782 192.479 736.865 199.307C728.828 212.563 721.193 225.016 709.138 234.255C701.905 239.477 696.279 238.673 690.654 231.443C681.411 220.597 681.009 207.341 682.215 192.479Z" fill="#FDF6F9"/>
<path d="M810.802 256.348C813.615 259.561 815.222 261.168 816.428 263.177C825.67 278.843 834.912 294.91 843.351 310.978C846.967 317.807 846.565 319.815 842.145 323.832C836.921 328.251 832.099 328.652 826.473 324.234C823.661 322.225 821.25 319.414 819.24 316.602C806.783 298.124 805.98 278.441 810.802 256.348Z" fill="#FDF6F9"/>
<path d="M629.574 210.956C630.78 208.948 631.182 206.538 632.789 205.734C637.611 202.521 642.835 200.111 648.059 197.299C648.461 196.897 649.264 196.495 649.666 196.495C658.105 199.709 665.74 194.085 674.982 194.085C673.776 198.102 672.973 201.717 672.169 205.333C670.562 208.546 668.954 211.358 666.945 214.572C664.132 218.99 661.319 223.811 657.703 227.426C650.068 235.058 642.031 233.853 636.405 225.016C633.191 220.597 631.583 215.777 629.574 210.956Z" fill="#FDF6F9"/>
<path d="M629.574 210.956C631.583 215.375 633.19 220.597 636.003 224.614C641.629 233.853 650.067 234.656 657.3 227.024C660.917 223.409 663.73 218.589 666.543 214.17C668.552 211.358 669.757 208.145 671.766 204.931C673.776 204.931 675.383 204.931 677.794 204.529C677.794 206.94 677.794 209.35 677.794 211.76C676.99 210.957 676.589 210.555 675.383 208.948C673.776 212.162 672.57 214.973 670.561 217.785C666.944 222.606 663.73 227.828 659.31 231.845C650.871 239.477 640.021 238.272 633.592 229.033C629.975 223.811 628.368 216.982 625.957 210.956C626.761 211.358 627.966 210.956 629.574 210.956Z" fill="#E52F68"/>
<path d="M852.996 331.464C857.014 344.72 861.032 358.378 865.453 371.634C864.649 372.035 864.247 372.035 863.443 372.437C852.192 361.19 849.781 347.532 850.585 332.268C851.388 331.866 852.192 331.866 852.996 331.464Z" fill="#F9E1EB"/>
<path d="M1296.22 274.826C1287.78 283.261 1279.34 291.295 1271.31 300.132C1262.47 309.371 1254.03 319.012 1245.59 328.653C1239.96 335.481 1237.55 343.515 1238.76 351.951C1239.56 358.378 1238.76 363.198 1233.94 367.215C1233.54 367.617 1233.54 368.822 1232.73 370.83C1235.95 369.224 1237.96 368.018 1239.96 366.813C1243.18 367.215 1244.79 372.839 1243.18 379.668C1245.59 378.864 1247.6 377.257 1249.21 377.659C1251.22 378.061 1253.23 379.668 1255.23 381.274C1254.83 383.685 1254.43 386.496 1254.03 388.907C1254.43 389.308 1254.83 389.308 1255.23 389.71C1256.84 387.701 1258.45 385.693 1260.86 382.881C1273.72 383.283 1285.37 377.659 1297.03 371.232C1297.43 402.564 1297.83 433.494 1298.63 464.826C1299.44 496.159 1300.24 527.089 1301.04 558.421C1301.45 567.258 1302.65 568.463 1311.09 568.865C1327.16 569.267 1343.24 569.668 1360.11 570.472C1364.13 594.975 1359.71 619.478 1360.92 644.785C1355.29 645.187 1350.87 645.187 1346.45 645.588C1335.6 646.793 1324.75 647.597 1313.9 649.204C1302.65 650.81 1299.44 654.827 1299.03 666.476C1298.63 676.92 1298.63 687.766 1298.63 698.21C1299.03 722.713 1299.44 746.815 1300.24 772.122C1274.52 772.122 1248 772.122 1220.68 772.122C1221.08 769.31 1221.48 766.9 1221.88 764.489C1226.3 739.584 1223.89 714.679 1221.48 689.774C1220.27 678.125 1219.07 666.878 1218.27 655.229C1217.46 647.195 1216.26 645.99 1208.22 645.99C1204.2 645.99 1200.58 645.99 1196.16 645.99C1195.36 643.178 1194.16 640.366 1193.35 637.956C1189.33 627.914 1182.1 623.897 1172.05 627.914C1166.03 629.922 1160.8 633.939 1155.58 637.153C1152.77 638.76 1150.76 641.571 1148.35 643.58C1131.87 621.888 1119.82 622.29 1094.1 645.99C1092.89 642.776 1092.09 639.965 1091.28 637.153C1088.87 629.521 1085.26 623.093 1078.83 618.273C1070.39 612.248 1061.95 611.444 1052.71 616.265C1041.86 622.29 1034.63 631.529 1028.6 641.973C1024.98 648.4 1024.18 648.4 1016.54 645.187C1016.54 644.785 1016.14 643.981 1016.14 643.58C1015.74 642.375 1015.34 641.17 1014.53 639.965C1011.72 635.948 1009.71 631.127 1006.1 627.512C995.648 617.068 982.789 617.068 973.145 627.914C968.323 633.538 965.108 640.768 961.492 647.195C957.071 647.998 952.651 648.4 947.829 649.204C947.427 646.392 947.025 643.982 947.025 641.973C947.427 620.683 947.829 598.992 948.633 577.702C948.633 574.89 950.24 571.677 951.847 569.267C990.826 514.636 1030.21 460.408 1069.18 406.179C1071.19 403.769 1072.4 400.957 1074.41 398.145C1082.85 396.137 1088.47 390.112 1094.1 384.488C1099.72 386.898 1104.95 388.907 1110.97 391.718C1110.97 381.676 1104.95 376.454 1101.73 369.224C1104.14 367.617 1106.55 366.412 1105.35 361.993C1103.74 357.173 1107.76 353.156 1112.98 351.549C1114.99 350.746 1117.4 349.541 1119.41 348.737C1125.04 350.746 1128.66 357.574 1136.29 356.369C1136.69 347.934 1129.86 342.31 1128.66 334.276C1135.09 327.447 1136.29 319.012 1137.09 310.175C1147.54 296.115 1157.99 281.654 1168.04 267.595C1179.69 251.126 1191.74 235.058 1203 218.187C1206.21 213.768 1209.42 212.162 1215.05 212.162C1237.96 212.162 1260.46 211.358 1283.36 210.957C1287.38 210.957 1291.8 210.957 1297.03 210.957C1295.82 232.246 1296.22 253.536 1296.22 274.826ZM1217.86 333.473C1217.06 333.071 1216.66 332.268 1215.85 331.866C1213.85 333.071 1211.43 333.875 1210.23 335.481C1208.22 337.49 1207.42 340.302 1205.81 342.712C1155.58 413.41 1105.35 483.706 1055.12 554.404C1053.11 556.814 1051.5 559.626 1049.9 562.438C1045.88 569.668 1047.89 572.078 1055.92 572.078C1071.59 572.078 1087.27 572.078 1102.94 572.48C1136.29 572.882 1169.64 573.685 1203 574.087C1206.61 574.087 1209.83 573.284 1213.44 572.882C1218.67 572.48 1220.68 569.267 1220.27 564.446C1220.27 562.438 1219.87 560.429 1219.87 558.823C1218.67 521.465 1216.66 484.509 1216.26 447.152C1215.85 421.042 1217.46 394.53 1217.86 368.42C1218.27 356.369 1217.86 344.72 1217.86 333.473ZM1282.16 574.087C1281.35 574.087 1280.55 574.087 1279.75 574.087C1278.94 575.292 1278.14 576.497 1277.74 578.104C1274.12 586.138 1270.91 594.573 1267.29 602.607C1264.48 609.034 1260.86 615.06 1257.65 621.487C1256.84 623.495 1256.84 625.905 1256.44 627.914C1257.24 628.315 1258.05 628.315 1258.85 628.717C1265.28 616.666 1272.11 604.616 1278.54 592.565C1280.55 588.548 1282.16 584.129 1282.96 580.112C1283.36 578.104 1282.16 576.095 1282.16 574.087ZM1287.78 602.205C1280.55 615.863 1271.71 628.717 1267.69 643.982C1277.34 635.948 1281.76 624.7 1286.58 613.855C1288.18 610.239 1291 607.026 1287.78 602.205ZM1288.18 638.759C1295.42 631.931 1300.24 620.683 1299.03 613.453C1293.41 621.888 1288.99 629.521 1288.18 638.759Z" fill="#FEFCFD"/>
<path d="M1136.29 310.175C1135.89 319.012 1134.28 327.447 1127.85 334.276C1129.06 341.908 1135.89 347.532 1135.49 356.369C1127.85 357.173 1124.24 350.344 1118.61 348.737C1116.6 349.541 1114.19 350.746 1112.18 351.549C1106.96 353.156 1103.34 357.173 1104.55 361.993C1105.75 366.01 1103.74 367.215 1100.93 369.223C1104.14 376.052 1110.17 381.676 1110.17 391.718C1104.14 389.308 1098.92 386.898 1093.29 384.488C1087.67 390.111 1082.44 396.539 1073.6 398.145C1067.98 398.547 1062.35 398.949 1056.73 398.949C1053.91 398.547 1051.1 398.547 1048.69 398.145C1046.28 397.342 1045.47 395.735 1047.08 393.325C1053.51 392.522 1059.54 392.12 1065.97 391.317C1079.23 389.71 1086.86 381.676 1091.28 370.027C1095.7 360.788 1094.9 351.951 1090.08 343.515C1084.05 342.712 1078.43 341.507 1073.2 340.703C1073.6 339.097 1073.6 336.686 1074.41 335.481C1078.43 330.661 1082.44 325.841 1086.46 321.02C1092.49 324.636 1090.48 331.866 1092.49 337.088C1092.49 340.703 1095.3 340.703 1097.71 340.703C1109.37 341.908 1116.6 335.08 1122.23 326.242C1123.03 324.234 1124.24 322.225 1125.04 320.217C1130.26 307.764 1125.44 295.312 1124.64 281.654C1126.24 283.261 1127.45 284.065 1128.25 284.868C1129.06 288.082 1130.26 291.295 1131.07 294.509C1133.08 298.927 1134.68 304.551 1136.29 310.175ZM1119.01 342.712C1122.63 344.72 1124.64 345.925 1129.06 347.934C1127.05 343.515 1125.84 341.105 1124.64 337.891C1122.63 339.498 1121.42 340.703 1119.01 342.712ZM1101.33 382.078C1102.13 381.676 1102.54 380.873 1103.34 380.471C1101.73 378.462 1100.53 376.454 1098.52 374.044C1094.1 380.471 1098.12 380.873 1101.33 382.078Z" fill="#181717"/>
<path d="M1086.06 645.99C1068.38 645.99 1051.1 645.99 1033.42 645.99C1035.43 634.743 1049.9 620.282 1060.74 618.273C1065.97 617.47 1070.79 619.076 1075.21 622.29C1082.04 627.512 1085.66 635.546 1086.06 645.99Z" fill="#FDF6F9"/>
<path d="M1011.32 643.58C1011.32 647.597 1008.51 647.195 1006.1 647.195C996.853 647.195 987.611 647.195 978.77 647.597C975.556 647.597 972.341 647.998 969.528 648.4C968.323 647.998 966.715 647.597 965.51 647.195C969.528 641.17 973.145 634.743 977.967 629.521C985.2 622.29 993.638 622.29 1000.87 629.521C1004.89 633.136 1008.1 638.759 1011.32 643.58Z" fill="#FDF6F9"/>
<path d="M1141.51 645.99C1128.25 645.99 1116.2 645.99 1102.94 645.99C1107.76 637.554 1114.19 633.537 1123.03 633.136C1131.47 633.136 1137.9 636.349 1141.51 645.99Z" fill="#F9E1EB"/>
<path d="M1189.74 645.99C1178.08 645.99 1167.23 645.99 1156.38 645.99C1159.2 638.358 1172.05 630.726 1179.69 631.931C1186.52 633.136 1188.53 638.358 1189.74 645.99Z" fill="#F9E1EB"/>
<path d="M1011.32 643.58C1007.7 638.759 1004.89 633.136 1000.47 629.119C993.237 622.29 984.798 621.888 977.565 629.119C972.743 634.341 969.127 640.768 965.108 646.793C963.903 646.793 962.295 646.793 961.09 646.793C965.108 640.366 967.921 633.136 972.743 627.512C982.387 616.666 995.246 616.666 1005.69 627.11C1009.31 630.726 1011.32 635.546 1014.13 639.563C1013.33 640.768 1012.52 641.973 1011.32 643.58Z" fill="#E52F68"/>
<path d="M1047.48 392.923C1045.88 395.334 1046.28 396.94 1049.09 397.744C1051.9 398.547 1054.32 398.547 1057.13 398.547C1055.12 404.171 1052.31 409.393 1046.28 412.606C1043.47 409.795 1041.06 406.983 1038.24 403.769C1039.05 400.957 1039.85 398.547 1040.65 395.735C1042.26 392.923 1044.67 392.12 1047.48 392.923Z" fill="#FAFAFA"/>
<path d="M965.51 646.793C966.715 647.195 968.323 647.597 969.528 647.998C966.715 651.614 965.912 650.007 965.51 646.793Z" fill="#E52F68"/>
<path d="M1042.66 420.238C1042.26 418.632 1041.86 417.025 1041.46 415.82C1042.66 416.222 1043.87 416.623 1045.07 417.025C1043.87 418.23 1043.47 419.435 1042.66 420.238Z" fill="#C6C6C6"/>
<path d="M1015.74 643.178C1015.74 643.58 1016.14 644.383 1016.14 644.785C1015.74 644.383 1015.34 643.58 1015.74 643.178Z" fill="#E52F68"/>
<path d="M337.841 212.965C339.046 216.982 339.85 220.597 341.055 225.016C345.877 221.802 343.065 217.384 344.27 212.965C351.101 213.768 358.334 211.358 363.96 216.982C363.96 278.039 363.558 339.097 363.558 400.154C363.558 450.365 364.362 500.577 364.764 550.387C364.764 556.011 364.764 562.036 364.764 568.865C367.577 572.078 372.399 571.677 377.221 571.677C390.883 571.677 404.948 571.677 418.61 571.677C420.619 571.677 423.03 571.677 425.843 571.677C425.843 596.582 425.843 620.683 425.843 645.588C423.834 645.99 421.825 646.392 419.414 645.99C404.144 645.99 389.276 645.99 374.006 645.588C368.782 645.588 365.969 647.597 365.166 652.015C363.96 658.041 363.558 664.066 363.156 670.092C362.755 697.808 362.353 725.525 362.353 752.84C362.353 755.652 361.951 758.464 361.549 762.079C354.718 762.481 348.289 762.481 341.859 762.882C341.055 755.25 339.85 748.02 339.046 740.388C331.009 739.584 325.786 743.601 310.516 761.677C306.497 758.062 305.694 752.84 305.292 748.02C304.488 737.174 304.488 726.329 304.89 715.483C304.89 711.868 305.694 708.252 306.096 703.03C294.844 706.646 290.022 715.483 281.985 720.705C281.182 698.21 280.378 675.715 279.574 653.22C279.574 650.81 279.173 647.998 278.771 645.588C277.967 641.571 275.556 639.563 271.538 639.161C269.93 639.161 268.323 639.161 266.716 639.161C183.937 639.563 101.561 640.366 18.7822 640.768C15.1656 640.768 11.1473 640.768 7.12891 640.768C7.12891 635.144 7.12891 630.726 7.12891 626.307C7.12891 613.051 7.53074 599.795 7.53074 586.941C7.53074 580.916 9.13809 576.095 12.7546 570.873C69.4136 492.142 125.671 413.008 181.928 334.276C208.851 298.124 234.569 261.168 260.286 224.212C263.903 218.99 266.314 212.965 269.127 207.341C272.743 207.743 276.762 208.145 280.378 208.145C283.191 208.546 285.602 208.948 288.415 209.35C288.415 212.965 286.004 216.58 290.826 220.195C291.629 218.589 292.031 217.384 292.433 216.58C292.835 215.375 293.639 214.17 294.442 212.563C296.05 216.58 297.255 218.99 298.461 221.802C298.863 221.802 299.666 221.802 300.068 221.802C300.068 218.187 300.47 214.572 300.47 210.957C310.516 211.76 320.562 212.162 330.608 212.965C331.01 216.58 327.393 220.195 331.411 223.811C333.421 219.794 335.028 216.179 337.037 212.563L337.841 212.965ZM109.597 567.66C113.616 568.463 116.027 568.865 118.438 568.865C156.21 568.463 194.385 568.062 232.158 567.66C247.829 567.66 263.501 567.66 279.173 567.258C280.78 567.258 283.191 565.25 283.995 563.643C284.798 561.634 284.396 559.224 284.396 556.814C283.995 530.302 283.593 503.389 282.789 476.877C281.985 429.477 281.182 381.676 279.976 334.276C279.976 332.669 279.574 330.661 278.771 326.644C274.752 331.464 271.939 334.276 269.528 337.49C217.691 411 165.855 484.509 114.018 558.019C112.812 560.831 111.607 563.643 109.597 567.66ZM234.97 286.475C230.55 289.287 230.952 289.287 228.139 293.705C210.057 322.225 192.376 350.746 173.489 378.462C150.987 411.803 127.278 443.938 104.373 476.877C101.962 480.492 99.9532 484.108 97.9441 488.125C98.7477 488.526 99.1496 489.33 99.9532 489.731C101.962 487.723 104.373 485.714 105.981 483.304C109.999 478.082 114.018 472.459 118.036 467.237C150.987 421.444 185.545 376.454 214.879 328.251C221.308 317.405 227.336 306.559 233.363 295.714C234.569 292.902 237.381 290.09 234.97 286.475Z" fill="#FEFCFD"/>
<path d="M280.78 208.546C277.164 208.145 273.145 207.743 269.529 207.743C268.725 207.341 268.323 207.341 267.52 206.94C269.529 205.734 271.538 204.529 273.949 202.923C275.958 204.529 278.369 206.136 280.378 207.743L280.78 208.546Z" fill="#EA1658"/>
<path d="M1131.87 293.304C1131.07 290.09 1129.86 286.876 1129.06 283.663C1129.46 283.261 1129.46 282.458 1129.86 282.056C1133.88 278.843 1139.1 276.031 1135.89 269.202C1135.49 268.8 1138.7 266.792 1140.31 265.185C1143.12 267.194 1145.53 269.202 1148.35 271.21C1142.72 278.441 1137.1 286.073 1131.87 293.304Z" fill="#FAFAFA"/>
<path d="M1147.94 271.21C1145.13 269.202 1142.72 267.194 1139.91 265.185C1140.71 263.98 1141.92 262.775 1142.72 261.57C1146.74 261.57 1150.76 261.57 1154.77 261.57C1152.77 264.783 1150.35 267.997 1147.94 271.21Z" fill="#1F1F1F"/>
<path d="M1155.18 261.57C1151.16 261.57 1147.14 261.57 1143.12 261.57C1141.92 257.955 1140.71 254.741 1139.1 251.126C1144.73 253.938 1150.76 256.749 1156.38 259.561C1155.98 260.365 1155.58 260.766 1155.18 261.57Z" fill="#FAFAFA"/>
<path d="M1305.46 240.682C1309.89 241.485 1310.69 245.1 1310.29 248.716C1309.88 252.331 1308.28 255.946 1307.07 259.16C1306.67 252.733 1305.87 246.707 1305.46 240.682Z" fill="#C6C6C6"/>
<path d="M1247.2 349.139C1246.8 349.541 1246.39 349.541 1245.99 349.541L1245.59 349.139C1245.99 348.737 1246.39 348.737 1246.8 348.737C1246.8 348.335 1246.8 348.737 1247.2 349.139Z" fill="white"/>
<path d="M1139.1 251.126C1140.31 254.741 1141.51 257.955 1143.12 261.57C1142.32 262.775 1141.11 263.98 1140.31 265.185C1138.7 266.39 1135.89 268.399 1135.89 269.202C1139.1 276.031 1133.88 278.843 1129.86 282.056C1129.46 282.458 1129.46 283.261 1129.06 283.663C1128.25 282.86 1127.45 282.056 1125.44 280.449C1126.24 294.107 1131.07 306.559 1125.84 319.012C1124.24 319.815 1122.23 321.02 1120.62 321.824C1121.42 323.029 1122.23 323.832 1123.03 325.037C1117.4 334.276 1110.57 340.703 1098.52 339.498C1098.12 335.883 1095.71 335.883 1093.29 335.883C1091.28 330.661 1093.29 323.43 1087.27 319.815C1086.06 318.61 1084.45 317.807 1083.25 316.602C1082.44 316.2 1082.04 315.397 1081.24 314.995C1080.03 312.183 1078.43 309.773 1077.22 306.961C1076.42 297.722 1079.23 290.893 1088.87 287.68C1089.68 287.278 1089.68 286.073 1090.48 285.27C1091.29 282.86 1092.49 280.048 1093.29 277.638C1094.1 274.424 1092.09 272.415 1088.87 272.014C1088.87 270.809 1088.87 270.005 1088.87 268.8C1089.68 267.997 1090.08 267.193 1091.28 265.587C1083.65 263.177 1080.84 268.399 1077.62 272.416C1076.02 273.621 1074.01 274.826 1072.4 276.031C1071.6 276.031 1071.19 276.031 1070.39 276.031C1067.58 274.424 1067.17 276.031 1066.77 278.039C1066.37 279.244 1065.97 280.449 1065.57 281.654C1065.17 281.654 1064.36 281.654 1063.96 282.056C1062.75 282.86 1061.55 283.261 1060.34 284.065C1057.93 285.27 1055.12 286.475 1053.51 288.483C1050.3 292.902 1052.31 297.722 1057.53 299.329C1058.33 300.132 1059.14 300.936 1059.94 301.337C1060.75 302.542 1061.15 304.149 1061.95 305.354C1062.75 306.158 1063.16 306.559 1063.96 307.363C1064.76 308.166 1065.17 308.568 1065.97 309.371C1070.39 312.585 1075.21 315.798 1079.63 319.012C1079.23 325.037 1074.41 326.644 1070.39 328.251C1068.38 329.054 1065.97 330.259 1063.96 331.464C1061.55 330.259 1058.74 328.652 1056.33 328.251C1055.52 327.849 1053.91 329.858 1052.71 330.661C1046.28 332.268 1040.25 334.276 1033.82 335.883C1029 336.285 1024.98 337.49 1022.97 342.31C1019.36 347.13 1019.36 347.532 1023.78 349.942C1023.78 351.147 1024.18 352.352 1024.58 353.959C1026.19 353.156 1026.99 352.352 1028.2 351.951C1028.2 353.156 1028.6 354.763 1028.6 355.968C1029 357.976 1029.4 359.583 1029.8 361.591C1030.61 362.395 1031.41 363.198 1032.22 364.001C1033.42 366.01 1034.63 368.018 1035.83 369.625C1040.65 366.813 1040.65 365.608 1036.23 361.993C1035.83 361.19 1035.83 360.788 1035.43 359.985C1034.22 358.779 1033.42 357.173 1032.22 355.968C1033.02 354.763 1033.42 353.557 1034.22 352.352C1036.64 352.352 1039.05 352.352 1041.46 352.352C1042.66 355.164 1041.06 359.181 1045.07 361.591C1048.29 343.515 1046.68 346.729 1056.73 341.105C1062.35 341.105 1068.38 341.105 1074.01 341.105C1073.2 345.524 1075.61 347.13 1079.23 348.737C1090.08 353.156 1090.08 353.557 1089.68 366.01C1089.68 367.617 1091.29 368.822 1092.09 370.429C1087.67 382.479 1080.03 390.513 1066.77 391.718C1060.34 392.522 1054.32 392.923 1047.89 393.727C1044.67 392.923 1042.26 393.727 1041.06 396.94C1040.25 399.35 1039.45 402.162 1038.64 404.974C1037.04 405.376 1035.43 406.179 1033.82 406.581C1031.81 407.384 1029.8 408.188 1028.2 408.991C1026.59 406.179 1024.98 402.966 1022.97 400.154C1021.77 398.547 1019.76 398.145 1018.15 396.94C1015.34 396.94 1012.93 396.94 1010.11 396.539C1005.29 389.71 1002.88 382.078 1003.68 373.24C1006.1 373.24 1008.1 372.437 1007.3 369.223C1007.3 368.822 1005.29 369.223 1004.09 369.223C1003.28 369.223 1002.88 369.223 1002.08 369.223C998.863 367.215 995.648 365.608 992.433 363.6C993.237 361.19 993.639 358.378 994.442 355.968C994.442 354.763 994.844 353.156 994.442 352.754C991.228 351.147 988.013 349.541 984.798 348.335C983.995 343.113 983.593 338.293 982.789 333.071C991.228 329.456 999.666 331.063 1008.51 332.268C1008.51 331.464 1008.91 330.661 1008.91 329.858C1006.9 327.849 1004.49 325.841 1002.08 323.43C1006.9 297.32 1016.95 274.826 1042.26 261.57C1044.27 260.365 1046.28 259.561 1048.29 258.356C1049.49 259.16 1050.7 259.963 1051.5 260.365C1052.31 258.356 1053.51 256.348 1054.32 254.339C1055.52 253.536 1056.73 252.733 1057.93 251.527C1062.75 248.716 1067.58 245.502 1072 242.69C1072.8 241.887 1073.6 241.083 1074.41 240.28C1076.02 239.477 1077.22 239.075 1078.83 238.272C1078.83 237.87 1078.83 237.468 1078.43 236.665C1076.02 236.263 1074.01 236.263 1071.59 235.861C1069.59 233.05 1067.58 230.639 1065.57 227.828C1064.36 227.426 1063.56 226.623 1062.35 226.221C1065.97 224.212 1061.55 221.802 1062.35 219.794C1065.97 218.589 1069.99 217.384 1073.6 216.58C1075.61 219.392 1077.62 222.204 1079.23 225.417C1080.84 228.631 1082.04 231.845 1084.05 236.263C1086.46 230.238 1090.88 229.434 1095.3 230.238C1103.34 231.443 1110.98 232.648 1119.01 233.853V234.656C1119.01 237.067 1118.61 239.477 1118.61 242.289C1118.21 245.502 1120.62 245.502 1123.03 245.904C1127.85 247.511 1133.48 249.519 1139.1 251.126Z" fill="white"/>
<path d="M1072 242.69C1067.18 245.502 1062.35 248.716 1057.93 251.527C1052.71 239.075 1051.5 226.221 1052.31 212.965C1053.51 212.965 1054.72 212.965 1056.33 212.965C1053.91 215.777 1055.92 217.384 1058.33 218.99C1059.54 221.401 1061.15 224.212 1062.35 226.623C1062.35 227.024 1061.95 227.024 1061.95 227.426C1061.95 227.828 1062.35 228.229 1062.35 228.631C1065.17 233.451 1068.38 237.87 1072 242.69Z" fill="#FAFAFA"/>
<path d="M982.789 333.071C983.593 338.293 983.995 343.113 984.798 348.335C983.593 348.335 982.387 348.335 980.78 348.335C972.743 346.729 964.305 345.524 955.062 343.917C963.903 337.891 973.145 335.08 982.789 333.071Z" fill="#FAFAFA"/>
<path d="M994.442 355.968C993.638 358.378 993.236 361.19 992.433 363.6C982.387 360.788 973.145 355.968 962.295 349.541C967.921 349.942 971.939 349.942 975.556 350.344C981.985 352.352 988.012 354.361 994.442 355.968Z" fill="#FAFAFA"/>
<path d="M1073.2 216.982C1069.59 218.187 1065.57 219.392 1061.95 220.195C1060.75 219.794 1059.14 219.392 1057.93 218.589C1059.94 215.777 1059.54 213.768 1055.92 212.563C1059.14 210.957 1056.33 208.948 1056.33 206.94C1056.33 204.931 1055.92 203.324 1055.52 201.316C1062.75 203.726 1067.17 207.341 1073.2 216.982Z" fill="#FAFAFA"/>
<path d="M994.441 355.968C988.414 353.959 981.985 352.352 975.957 350.344C977.564 349.541 979.172 348.737 981.181 347.934C982.386 347.934 983.592 347.934 985.199 347.934C988.414 349.541 992.03 350.746 994.843 352.352C994.843 353.156 994.441 354.763 994.441 355.968Z" fill="#313131"/>
<path d="M1054.32 254.339C1053.51 256.348 1052.31 258.356 1051.5 260.365C1050.3 259.561 1049.09 258.758 1048.29 258.356C1049.49 256.749 1050.3 255.143 1051.91 253.938C1051.91 253.536 1053.11 253.938 1054.32 254.339Z" fill="#FAFAFA"/>
<path d="M284.395 97.2774C286.806 95.269 289.619 92.8588 292.03 90.8503C292.834 92.4571 294.04 93.6622 294.441 95.269C299.263 119.772 325.785 134.635 353.11 125.396C357.53 123.789 361.548 120.977 365.567 118.567C367.978 117.362 370.389 116.96 371.192 120.576C373.201 129.815 376.416 139.053 377.622 148.292C380.033 164.762 378.827 181.633 372.8 197.299C371.192 202.119 368.379 206.136 365.165 211.76C362.754 207.341 361.146 204.529 359.137 200.914C357.128 202.923 355.521 204.128 353.511 206.136C350.699 201.718 346.68 203.726 343.064 205.333H342.26L341.858 206.136C341.456 206.136 340.653 206.538 340.251 206.94C337.84 206.136 335.429 205.333 333.018 204.529C331.41 204.529 329.401 204.931 327.794 204.529C324.981 204.128 322.168 203.726 318.953 203.324C318.552 202.923 318.15 202.923 317.748 203.324C317.748 204.529 317.748 206.136 318.15 207.341C315.337 206.94 312.524 206.538 309.711 206.136C310.917 204.529 312.122 203.324 313.73 201.718C313.328 201.316 312.926 200.914 312.926 200.512C310.917 201.316 309.309 202.119 307.3 202.923C300.067 201.316 292.03 202.521 286.405 195.692C284.395 198.102 283.19 200.111 281.181 202.923C278.368 199.307 275.957 196.496 272.742 192.479C271.135 195.29 269.527 197.701 267.518 200.914C266.313 197.701 265.509 195.29 264.705 192.88C263.098 190.068 265.107 184.445 258.678 184.445C258.276 184.445 257.472 181.231 257.071 179.624C251.445 151.908 257.874 127.806 275.153 105.713C278.368 103.705 281.583 100.491 284.395 97.2774ZM363.557 176.411C363.959 176.411 364.763 176.813 365.165 176.411C363.959 180.83 363.156 184.846 361.95 189.265C362.754 189.265 363.156 189.667 363.959 189.667C367.576 184.043 369.585 177.616 370.389 170.787C370.79 168.779 369.585 167.172 367.174 168.377C366.772 168.377 366.37 168.377 365.968 168.377C365.968 167.574 365.567 167.172 365.567 166.369C367.174 159.54 369.585 152.309 363.557 144.677C363.155 152.711 362.754 159.54 362.352 166.369C361.548 170.386 360.343 174.402 359.539 178.419C359.941 178.419 360.343 178.821 361.146 178.821C361.95 178.018 362.754 177.214 363.557 176.411ZM282.788 172.796C285.199 169.18 286.806 165.164 290.021 162.753C296.049 158.335 297.656 152.309 297.656 146.284C297.656 138.25 296.451 130.216 295.647 122.584C295.245 120.576 293.638 118.969 291.629 115.354C292.432 127.003 293.236 136.242 293.638 145.079C293.638 147.489 293.638 151.104 292.03 152.309C284.395 158.335 283.19 168.779 275.153 174.001C275.555 174.804 276.359 175.206 276.761 176.009C278.77 174.402 280.779 173.599 282.788 172.796C283.19 174.001 283.592 175.608 283.19 176.411C281.583 178.821 279.172 180.83 276.761 183.641C280.377 184.043 283.592 185.65 286.003 184.846C290.825 182.838 286.806 178.419 287.61 175.206C285.601 174.402 284.395 173.599 282.788 172.796Z" fill="#FAFAFA"/>
<path d="M297.656 87.6368C298.46 67.1504 309.711 53.4929 326.99 44.2539C335.027 43.4505 343.064 41.4421 350.699 42.2455C372.8 44.6556 389.677 63.1335 383.248 91.252C380.033 96.8757 376.416 102.901 373.202 108.525C369.987 111.337 366.772 113.747 363.557 116.559C354.315 121.379 344.269 124.994 333.42 123.789C316.141 122.182 304.889 112.943 298.862 96.8757C300.469 96.0723 302.076 95.2689 304.086 94.0639C303.282 91.6537 302.478 88.8419 301.273 85.2266C300.067 88.4402 299.264 90.4486 298.058 92.8588C298.058 91.252 298.058 89.6452 297.656 87.6368ZM343.466 61.9284C340.251 62.7318 338.242 64.7403 338.644 68.7572C338.644 73.9792 338.644 78.7995 338.644 84.0215C332.214 79.6029 334.625 72.7741 334.223 65.5437C327.392 74.7826 329.401 82.8165 339.045 88.8419C339.447 87.6368 340.251 86.8334 340.653 85.6283C341.858 86.4317 342.662 86.8334 343.868 87.6368C353.512 95.2689 363.156 93.6622 370.389 84.0215C371.996 82.0131 373.202 80.0046 375.211 77.1928C367.174 69.5606 359.137 62.3301 350.699 54.698C349.091 52.2878 347.082 49.8776 342.26 50.2793C344.269 52.2878 345.475 53.4929 346.68 54.698C346.68 56.3047 346.68 58.3132 346.279 59.92C345.073 60.7233 344.269 61.5267 343.466 61.9284Z" fill="#F9F9F9"/>
<path d="M333.822 204.931C336.233 205.735 338.644 206.538 341.056 207.341C339.85 209.35 339.046 210.957 337.841 212.965H337.439C335.832 208.145 335.43 208.145 331.01 212.965C320.964 212.162 310.918 211.76 300.872 210.957C299.264 210.153 297.657 209.35 296.452 208.546C295.648 208.145 295.648 206.94 295.246 206.136C299.264 206.538 303.283 206.94 306.899 207.341C308.105 207.341 309.31 207.341 310.516 206.94C313.329 207.341 316.142 207.743 318.954 208.145C324.58 211.358 329.804 210.957 333.822 204.931Z" fill="#E52F68"/>
<path d="M386.463 91.6537C392.089 94.0638 390.883 100.089 393.696 104.508C388.472 106.516 383.65 108.525 378.828 110.533C381.239 104.106 384.052 97.6791 386.463 91.6537Z" fill="#F9E1EB"/>
<path d="M386.463 91.6537C383.65 97.6791 381.239 104.106 378.427 110.132C376.417 109.73 374.81 109.328 372.801 108.926C376.015 103.303 379.632 97.2774 382.847 91.6537C384.454 91.6537 385.66 91.6537 386.463 91.6537Z" fill="#444444"/>
<path d="M342.662 206.94L343.064 206.136H343.868L343.466 206.94H342.662Z" fill="#E52F68"/>
<path d="M295.246 206.136C295.648 206.94 296.05 208.145 296.452 208.546C297.657 209.751 299.264 210.153 300.872 210.957C300.872 214.572 300.47 218.187 300.47 221.802C300.068 221.802 299.264 221.802 298.863 221.802C297.657 218.99 296.452 216.179 294.844 212.563C294.041 214.572 293.237 215.777 292.835 216.58C292.433 217.785 292.031 218.589 291.228 220.195C286.406 216.982 288.817 212.965 288.415 209.751C289.62 208.546 290.424 207.341 291.63 206.136C292.835 206.136 294.041 206.136 295.246 206.136Z" fill="#313131"/>
<path d="M291.63 206.136C290.424 207.341 289.621 208.546 288.415 209.751C285.602 209.35 283.191 208.948 280.378 208.546L279.977 207.743C283.995 207.341 287.21 202.923 291.63 206.136Z" fill="#E52F68"/>
<path d="M310.515 206.94C309.309 206.94 308.104 206.94 306.898 207.341C307.3 206.136 307.3 204.931 307.702 203.726C309.711 202.923 311.319 202.119 313.328 201.316C313.73 201.718 314.132 202.119 314.132 202.521C312.926 204.128 311.72 205.333 310.515 206.94Z" fill="#646464"/>
<path d="M1028.2 408.188C1030.21 407.384 1032.22 406.581 1033.82 405.778C1034.63 408.991 1035.03 411.803 1035.83 415.82C1031.01 415.017 1029.8 411 1028.2 408.188Z" fill="#FAFAFA"/>
<path d="M1010.11 396.137C1012.93 396.137 1015.34 396.137 1018.15 396.539C1017.35 398.949 1016.54 401.761 1015.34 404.974C1013.73 402.966 1012.52 401.761 1011.72 400.154C1010.92 398.949 1010.52 397.342 1010.11 396.137Z" fill="#FAFAFA"/>
<path d="M298.059 93.2605C298.862 91.252 299.666 88.8418 301.273 85.6283C302.479 89.2435 303.282 92.0554 304.086 94.4655C302.077 95.6706 300.47 96.474 298.862 97.2774C298.862 96.0723 298.46 94.4655 298.059 93.2605Z" fill="#646464"/>
<path d="M1117.81 242.289C1117.81 239.878 1118.21 237.468 1118.21 234.656C1120.62 235.46 1123.03 236.263 1127.45 237.468C1123.03 239.878 1120.62 241.083 1117.81 242.289Z" fill="#FAFAFA"/>
<path d="M1004.09 369.223C1005.29 369.223 1007.3 368.822 1007.3 369.223C1008.1 372.035 1006.09 372.839 1003.68 373.24C1003.68 371.634 1004.09 370.429 1004.09 369.223Z" fill="#FAFAFA"/>
<path d="M571.709 496.158C572.111 449.964 578.942 405.376 597.025 362.796C605.865 341.507 617.92 321.422 634.797 304.953C650.871 289.287 668.954 280.048 692.26 279.244C705.521 278.843 716.37 282.056 726.818 288.082C744.499 298.124 756.956 312.987 767.404 329.858C783.477 356.369 793.121 384.89 798.747 415.418C811.204 481.296 807.587 546.37 784.683 609.838C775.038 635.948 761.778 660.049 741.686 679.732C736.462 684.954 730.435 689.373 724.407 693.39C697.886 709.859 669.355 708.654 644.04 690.578C629.574 680.134 618.322 666.476 609.08 651.212C593.006 624.299 583.764 594.975 578.138 564.446C573.718 541.951 571.709 519.055 571.709 496.158ZM584.166 496.158C584.166 521.063 586.577 545.968 591.801 570.472C597.828 599.394 607.472 626.709 623.948 651.212C631.181 662.058 639.619 671.698 650.469 678.929C672.972 694.595 697.082 694.996 719.585 679.732C731.64 671.698 741.284 661.656 749.321 649.605C760.171 633.939 768.609 617.068 774.637 598.992C796.738 533.516 799.149 466.835 783.477 399.35C777.449 372.839 767.404 347.934 751.33 325.439C742.49 312.987 732.042 302.141 718.379 295.312C697.886 284.868 677.392 284.466 658.908 298.526C650.067 304.953 642.03 312.585 635.199 320.619C624.751 332.669 617.117 347.13 610.687 361.993C591.399 404.974 584.97 449.562 584.166 496.158Z" fill="#EC1255"/>
<path d="M1217.86 333.473C1217.86 345.122 1217.86 356.369 1217.86 368.018C1217.46 394.128 1215.85 420.64 1216.26 446.75C1216.66 484.108 1218.67 521.063 1219.87 558.421C1219.87 560.429 1220.27 562.438 1220.27 564.045C1220.68 568.865 1218.67 572.078 1213.44 572.48C1209.83 572.882 1206.61 573.685 1203 573.685C1169.64 573.284 1136.29 572.48 1102.94 572.078C1087.27 571.677 1071.59 571.677 1055.92 571.677C1047.48 571.677 1045.88 569.267 1049.9 562.036C1051.5 559.224 1053.11 556.412 1055.12 554.002C1105.35 483.304 1155.58 413.008 1205.81 342.31C1207.42 339.9 1208.22 337.088 1210.23 335.08C1211.84 333.473 1213.85 332.669 1215.85 331.464C1216.66 332.268 1217.46 332.669 1217.86 333.473ZM1208.62 353.557C1208.22 353.156 1207.42 353.156 1207.01 352.754C1206.21 353.557 1205.41 354.361 1204.6 355.566C1157.19 423.05 1110.17 490.936 1062.75 558.421C1062.75 558.421 1062.75 558.823 1062.75 559.224C1062.75 559.626 1063.16 559.626 1063.16 560.028C1112.18 560.831 1161.2 561.634 1209.02 562.438C1207.82 526.687 1205.81 491.74 1205.81 457.194C1205.81 422.649 1207.82 388.103 1208.62 353.557Z" fill="#EB1456"/>
<path d="M1282.16 574.087C1282.56 576.095 1283.36 578.104 1282.96 580.112C1281.76 584.531 1280.55 588.95 1278.54 592.565C1272.11 604.616 1265.68 616.666 1258.85 628.717C1258.05 628.315 1257.24 628.316 1256.44 627.914C1256.84 625.905 1256.84 623.495 1257.65 621.487C1260.86 615.06 1264.48 609.034 1267.29 602.607C1270.91 594.573 1274.12 586.138 1277.74 578.104C1278.14 576.899 1278.94 575.292 1279.75 574.087C1280.55 574.087 1281.35 574.087 1282.16 574.087Z" fill="#262323"/>
<path d="M1287.78 602.205C1291 607.026 1288.19 610.641 1286.58 613.854C1281.35 624.7 1276.93 635.948 1267.69 643.981C1271.71 628.717 1280.15 615.863 1287.78 602.205Z" fill="#262323"/>
<path d="M1288.19 638.759C1288.99 629.52 1293.41 621.888 1299.04 613.453C1300.24 620.282 1295.42 631.931 1288.19 638.759Z" fill="#444444"/>
<path d="M1033.02 335.883C1039.45 334.276 1045.48 332.268 1051.91 330.661C1056.33 331.866 1061.15 333.473 1065.57 334.678C1065.57 335.08 1065.97 335.481 1065.97 336.285C1066.37 335.883 1066.77 335.883 1067.17 335.481C1066.77 335.08 1066.37 335.08 1065.97 334.678C1065.17 333.874 1064.36 332.669 1063.56 331.866C1065.57 330.661 1067.58 329.456 1069.99 328.652C1074.41 326.644 1078.83 325.037 1079.23 319.414C1080.44 319.012 1081.64 318.208 1082.85 317.807C1084.05 319.012 1085.66 319.815 1086.87 321.02C1082.85 325.841 1078.83 330.661 1074.81 335.481C1074.01 336.686 1074.01 339.097 1073.6 340.703C1067.98 340.703 1061.95 340.703 1056.33 340.703C1055.12 339.9 1053.91 338.695 1052.71 338.695C1044.67 339.498 1042.26 345.524 1040.65 352.352C1038.24 352.352 1035.83 352.352 1033.42 352.352C1031.81 351.549 1030.21 351.147 1028.6 350.344C1029.8 348.737 1031.01 347.532 1031.81 345.925C1033.42 343.113 1031.41 343.113 1029.4 343.113C1029 342.31 1028.2 341.908 1027.79 341.105C1029.8 339.498 1034.22 340.302 1033.02 335.883Z" fill="#FAFAFA"/>
<path d="M1092.09 369.625C1091.29 368.018 1089.68 366.813 1089.68 365.206C1090.08 352.352 1090.08 352.352 1079.23 347.934C1075.61 346.327 1073.2 344.72 1074.01 340.302C1079.63 341.105 1085.26 342.31 1090.88 343.113C1095.71 351.549 1096.11 360.386 1092.09 369.625Z" fill="#FAFAFA"/>
<path d="M1119.01 342.712C1121.42 340.703 1122.63 339.9 1124.64 338.293C1125.84 341.105 1127.05 343.515 1129.06 348.335C1124.64 345.524 1122.63 344.319 1119.01 342.712Z" fill="#C6C6C6"/>
<path d="M1101.33 382.078C1098.52 380.873 1094.1 380.471 1098.52 374.044C1100.53 376.454 1101.73 378.462 1103.34 380.471C1102.54 380.873 1101.73 381.676 1101.33 382.078Z" fill="#C6C6C6"/>
<path d="M1123.03 325.439C1122.23 324.234 1121.42 323.43 1120.62 322.225C1122.23 321.422 1124.24 320.217 1125.84 319.414C1125.04 321.422 1123.83 323.431 1123.03 325.439Z" fill="#FAFAFA"/>
<path d="M1093.29 336.285C1095.7 336.285 1098.52 336.285 1098.52 339.9C1095.7 340.302 1093.29 340.302 1093.29 336.285Z" fill="#FAFAFA"/>
<path d="M109.598 567.66C111.607 563.643 112.812 560.831 114.42 558.421C166.257 484.911 218.094 411.401 269.931 337.891C272.342 334.678 275.154 331.866 279.173 327.046C279.575 331.464 279.977 333.071 280.378 334.678C281.182 382.078 281.986 429.879 283.191 477.279C283.593 503.791 283.995 530.704 284.799 557.216C284.799 559.626 285.2 562.036 284.397 564.044C283.593 565.651 281.182 567.258 279.575 567.66C263.903 568.061 248.231 567.66 232.56 568.061C194.787 568.463 156.613 568.865 118.84 569.266C116.027 568.865 113.616 568.061 109.598 567.66ZM273.949 346.729C273.145 346.729 272.743 346.327 271.94 346.327C222.514 417.427 173.49 488.124 123.26 560.027C175.097 560.027 225.327 560.027 275.958 560.027C275.154 488.526 274.351 417.427 273.949 346.729Z" fill="#EA1A5A"/>
<path d="M234.969 286.475C237.38 290.09 234.567 292.5 232.96 295.312C226.933 306.158 220.905 317.405 214.476 327.849C185.141 376.052 150.583 421.042 117.633 466.835C113.614 472.459 109.596 477.681 105.578 482.903C103.569 485.313 101.559 487.321 99.5502 489.33C98.7465 488.928 98.3447 488.125 97.541 487.723C99.5502 484.108 101.559 480.091 103.97 476.475C126.875 443.537 150.583 411.401 173.086 378.061C191.973 350.344 209.654 321.422 227.736 293.303C230.951 289.287 230.549 289.287 234.969 286.475Z" fill="#E8205E"/>
<path d="M331.009 212.965C335.429 208.145 335.831 208.145 337.438 212.965C335.831 216.58 333.821 220.195 331.812 224.212C328.196 220.195 331.41 216.58 331.009 212.965Z" fill="#262323"/>
<path d="M1076.82 307.363C1078.02 310.175 1079.63 312.585 1080.84 315.397C1077.22 313.388 1073.6 311.38 1069.99 309.773C1068.78 308.97 1066.77 309.371 1065.17 309.371C1065.17 308.568 1065.17 307.764 1065.17 307.363C1064.36 307.363 1063.56 307.363 1063.16 307.363C1063.16 306.559 1063.16 305.756 1063.16 305.354C1062.35 305.354 1061.55 305.354 1061.15 305.354C1063.16 302.944 1061.15 302.141 1059.14 301.337C1058.33 300.534 1057.53 299.731 1056.73 299.329C1051.5 297.722 1049.49 292.5 1052.71 288.483C1054.32 286.475 1057.13 285.671 1059.54 284.065C1061.15 287.68 1059.14 292.902 1064.36 295.714C1064.76 293.303 1064.76 291.697 1065.17 290.09C1069.18 289.688 1067.17 286.475 1067.58 284.466C1071.59 282.859 1074.81 281.253 1075.61 276.432C1076.01 275.227 1076.42 274.022 1076.82 272.817C1080.03 268.399 1082.44 263.177 1090.48 265.988C1089.28 267.193 1088.87 268.399 1088.07 269.202C1084.45 271.21 1080.03 272.415 1079.23 279.244C1082.85 276.432 1085.26 274.424 1087.67 272.415C1091.28 272.817 1092.89 274.826 1092.09 278.039C1091.69 280.851 1090.48 283.261 1089.28 285.671C1078.43 286.073 1072.8 289.688 1071.59 298.526C1072 302.542 1071.19 306.559 1076.82 307.363Z" fill="#FAFAFA"/>
<path d="M1076.82 307.363C1071.19 306.559 1072 302.542 1072.4 298.927C1073.6 290.09 1078.83 286.073 1090.08 286.073C1089.68 286.876 1089.28 288.081 1088.47 288.483C1078.83 291.295 1076.42 298.124 1076.82 307.363Z" fill="#313131"/>
<path d="M1041.05 351.951C1042.26 345.122 1044.67 339.096 1053.11 338.293C1054.32 338.293 1055.52 339.498 1056.73 340.302C1046.68 345.925 1048.29 342.712 1045.07 360.788C1040.65 358.779 1042.26 354.763 1041.05 351.951Z" fill="#313131"/>
<path d="M1072 242.69C1068.78 237.87 1065.17 233.05 1061.95 228.229C1063.16 228.229 1064.36 228.229 1065.17 227.828C1067.18 230.639 1069.18 233.05 1071.19 235.861C1072 237.067 1073.2 238.673 1074.01 239.878C1073.6 241.084 1072.8 241.887 1072 242.69Z" fill="#444444"/>
<path d="M1077.22 273.219C1076.82 274.424 1076.02 275.629 1076.02 276.834C1075.21 281.654 1072 283.261 1067.98 284.868C1067.58 282.86 1066.77 280.851 1066.37 278.843C1066.77 276.432 1067.17 275.227 1069.99 276.834C1069.99 278.039 1069.99 278.843 1069.99 280.048C1070.79 278.843 1071.19 278.039 1072 276.834C1073.6 275.629 1075.21 274.424 1077.22 273.219Z" fill="#646464"/>
<path d="M1065.57 309.371C1067.17 309.371 1068.78 308.97 1070.39 309.773C1074.01 311.38 1077.62 313.388 1081.24 315.397C1082.04 315.798 1082.44 316.602 1083.25 317.003C1082.04 317.405 1080.84 318.209 1079.63 318.61C1074.81 315.798 1069.99 312.585 1065.57 309.371Z" fill="#646464"/>
<path d="M1065.57 290.09C1065.17 291.697 1065.17 293.705 1064.76 295.714C1059.54 292.902 1061.55 287.68 1059.94 284.065C1061.15 283.261 1062.35 282.86 1063.56 282.056C1064.36 285.27 1065.17 287.68 1065.57 290.09Z" fill="#646464"/>
<path d="M1029.8 343.113C1031.81 343.113 1033.82 342.712 1032.21 345.925C1031.41 347.532 1030.21 348.737 1029 350.344C1028.2 351.147 1027.39 351.549 1026.99 352.352C1025.78 352.754 1024.98 353.557 1023.37 354.361C1022.97 352.754 1022.97 351.549 1022.57 350.344C1024.98 347.532 1027.39 345.524 1029.8 343.113Z" fill="#646464"/>
<path d="M1029 349.942C1030.61 350.746 1032.21 351.147 1033.82 351.951C1033.02 353.156 1032.62 354.361 1031.81 355.566C1031.41 357.574 1031.41 359.583 1031.01 361.591C1030.21 361.591 1029.8 361.19 1029 361.19C1028.6 359.181 1027.79 357.574 1027.79 355.566C1027.39 354.361 1027.39 353.156 1027.39 351.549C1027.79 351.147 1028.6 350.746 1029 349.942Z" fill="#646464"/>
<path d="M1029.8 343.113C1027.39 345.524 1025.38 347.532 1022.97 349.942C1018.55 347.532 1018.55 347.13 1022.17 342.31C1024.18 341.908 1026.19 341.507 1028.2 341.105C1028.6 341.908 1029.4 342.31 1029.8 343.113Z" fill="#FAFAFA"/>
<path d="M1088.07 272.415C1085.66 274.424 1083.25 276.432 1079.63 279.244C1080.43 272.415 1084.85 270.809 1088.47 269.202C1088.07 270.407 1088.07 271.612 1088.07 272.415Z" fill="#646464"/>
<path d="M1065.57 334.678C1061.15 333.473 1056.32 331.866 1051.9 330.661C1053.11 329.858 1054.72 328.251 1055.52 328.251C1058.33 329.054 1060.74 330.259 1063.16 331.464C1064.36 332.669 1065.16 333.473 1065.57 334.678Z" fill="#646464"/>
<path d="M1028.2 341.105C1026.19 341.507 1024.18 341.908 1022.17 342.31C1024.18 337.49 1028.2 336.285 1033.02 335.883C1034.22 340.302 1029.8 339.498 1028.2 341.105Z" fill="#444444"/>
<path d="M1035.03 359.583C1035.43 360.386 1035.43 360.788 1035.83 361.591C1035.83 364.002 1035.43 366.813 1035.43 369.224C1034.22 367.215 1033.02 365.207 1031.81 363.6C1031.81 363.198 1032.21 363.198 1032.21 362.796C1032.21 362.395 1031.81 361.993 1031.81 361.591C1032.21 360.788 1033.42 360.386 1035.03 359.583Z" fill="#646464"/>
<path d="M1035.03 369.223C1035.03 366.813 1035.43 364.001 1035.43 361.591C1039.85 365.207 1039.85 366.412 1035.03 369.223Z" fill="#FAFAFA"/>
<path d="M1074.01 240.28C1073.2 239.075 1072 237.468 1071.19 236.263C1073.6 236.665 1075.61 236.665 1078.02 237.067C1078.02 237.468 1078.02 237.87 1078.43 238.673C1076.82 239.075 1075.61 239.878 1074.01 240.28Z" fill="#FAFAFA"/>
<path d="M1066.37 278.843C1066.77 280.851 1067.58 282.859 1067.98 284.868C1067.58 286.876 1069.59 289.688 1065.57 290.492C1065.17 287.68 1065.17 285.27 1064.76 282.458C1065.57 281.253 1065.97 280.048 1066.37 278.843Z" fill="#444444"/>
<path d="M1035.03 359.583C1033.82 360.386 1032.62 360.788 1031.01 361.591C1031.41 359.583 1031.41 357.574 1031.81 355.566C1032.62 356.771 1033.82 357.976 1035.03 359.583Z" fill="#FAFAFA"/>
<path d="M1057.93 218.99C1059.14 219.392 1060.74 219.794 1061.95 220.597C1061.15 222.606 1065.57 225.016 1061.95 227.024C1060.74 223.811 1059.14 221.401 1057.93 218.99Z" fill="#1F1F1F"/>
<path d="M1065.16 282.458C1065.57 285.27 1065.57 287.68 1065.97 290.492C1065.16 288.082 1064.36 285.27 1063.96 282.86C1063.96 282.458 1064.76 282.056 1065.16 282.458Z" fill="#C6C6C6"/>
<path d="M1059.94 301.739C1061.95 302.542 1063.96 303.346 1061.95 305.756C1061.15 304.551 1060.34 302.944 1059.94 301.739Z" fill="#646464"/>
<path d="M1071.6 276.834C1070.79 278.039 1070.39 278.843 1069.59 280.048C1069.59 278.843 1069.59 278.039 1069.59 276.834C1070.39 276.834 1071.19 276.834 1071.6 276.834Z" fill="#FAFAFA"/>
<path d="M1065.17 228.229C1063.96 228.229 1062.75 228.229 1061.95 228.631C1061.95 228.229 1061.55 227.828 1061.55 227.426C1061.55 227.024 1061.95 227.024 1061.95 226.623C1063.16 227.024 1063.96 227.828 1065.17 228.229Z" fill="#1F1F1F"/>
<path d="M1063.56 307.363C1064.36 307.363 1065.17 307.363 1065.57 307.363C1065.57 308.166 1065.57 308.97 1065.57 309.371C1065.17 308.97 1064.36 308.166 1063.56 307.363Z" fill="#646464"/>
<path d="M1061.95 305.756C1062.75 305.756 1063.56 305.756 1063.96 305.756C1063.96 306.559 1063.96 307.363 1063.96 307.764C1063.16 306.961 1062.35 306.158 1061.95 305.756Z" fill="#646464"/>
<path d="M1057.53 299.731C1058.33 300.534 1059.14 301.337 1059.94 301.739C1059.14 300.936 1058.33 300.534 1057.53 299.731Z" fill="#646464"/>
<path d="M1031.01 361.591C1031.01 361.993 1031.41 362.395 1031.41 362.796C1031.41 363.198 1031.41 363.198 1031.01 363.6C1030.2 362.796 1029.4 361.993 1028.6 361.19C1029.8 361.19 1030.2 361.19 1031.01 361.591Z" fill="#FAFAFA"/>
<path d="M1055.92 212.965C1059.54 214.17 1059.94 215.777 1057.93 218.99C1055.52 217.384 1053.91 216.179 1055.92 212.965Z" fill="#1F1F1F"/>
<path d="M283.192 172.394C281.182 173.599 279.173 174.402 277.164 175.608C276.762 174.804 275.958 174.402 275.557 173.599C283.593 167.975 284.799 157.933 292.434 151.908C294.041 150.703 294.041 147.087 294.041 144.677C293.639 135.438 292.836 126.199 292.032 114.952C294.041 118.567 296.05 120.174 296.05 122.182C297.256 130.216 298.06 137.848 298.06 145.882C298.06 151.908 296.452 158.335 290.425 162.352C286.808 164.762 285.201 169.18 283.192 172.394Z" fill="#313131"/>
<path d="M283.191 172.394C284.397 173.197 286.004 174.001 287.611 175.206C287.209 178.419 290.826 182.838 286.004 184.846C283.995 185.65 280.78 184.445 276.762 183.641C279.575 180.829 281.584 178.821 283.191 176.411C283.593 175.607 283.191 173.599 283.191 172.394Z" fill="#646464"/>
<path d="M367.175 168.377C369.586 167.172 370.792 168.779 370.39 170.787C369.184 177.616 367.175 184.043 363.96 189.667C363.157 189.667 362.755 189.265 361.951 189.265C363.157 184.846 363.96 180.829 365.166 176.411C365.97 174.001 366.371 171.189 367.175 168.377Z" fill="#444444"/>
<path d="M362.352 166.77C362.753 159.941 363.155 153.113 363.557 145.079C369.183 152.711 367.174 159.941 365.566 166.77C364.361 166.77 363.557 166.77 362.352 166.77Z" fill="#313131"/>
<path d="M333.823 204.931C329.804 210.555 324.982 210.957 318.955 207.743C318.955 206.538 318.955 204.931 318.553 203.726L319.356 204.128L320.16 203.726C322.973 204.128 325.786 204.529 329 204.931C330.206 205.333 331.813 205.333 333.823 204.931Z" fill="#262323"/>
<path d="M362.353 166.77C363.157 166.77 364.363 166.77 365.166 166.77C365.166 167.574 365.568 167.975 365.568 168.779C364.764 171.189 363.961 174.001 363.157 176.411C362.353 177.214 361.55 178.018 360.746 179.223C360.344 179.223 359.942 178.821 359.139 178.821C360.746 174.804 361.55 170.787 362.353 166.77Z" fill="#646464"/>
<path d="M363.559 176.411C364.362 174.001 365.166 171.189 365.97 168.779C366.371 168.779 366.773 168.779 367.175 168.779C366.371 171.591 365.97 174.001 365.166 176.813C364.764 176.411 363.96 176.411 363.559 176.411Z" fill="#C6C6C6"/>
<path d="M319.758 204.128L318.954 204.529L318.15 204.128C318.954 203.726 319.356 203.726 319.758 204.128Z" fill="#E52F68"/>
<path d="M345.877 60.3216C345.877 58.7148 345.877 56.7064 346.279 55.0996C347.484 55.0996 349.092 55.0996 350.297 55.0996C358.334 62.7318 366.773 69.9622 374.809 77.5944C372.8 80.4063 371.595 82.4147 369.987 84.4232C362.754 94.0638 353.11 95.2689 343.466 88.0384C342.662 87.235 341.457 86.8333 340.251 86.03C339.448 85.2266 339.046 84.4232 338.242 84.0215V84.4232C338.242 79.2012 338.644 74.3809 338.242 69.1589C338.242 65.5436 339.85 63.5352 343.064 62.3301C343.466 62.7318 343.868 63.1335 344.27 63.5352C343.466 67.5521 341.859 71.569 341.457 75.5859C341.457 82.4147 345.475 86.8333 351.905 88.8418C357.932 90.4486 362.352 88.4401 366.371 81.6113C363.156 80.8079 361.147 79.2012 361.147 74.7826C361.147 68.7572 352.708 61.5267 345.877 61.5267C346.279 60.7233 346.279 60.7233 345.877 60.3216Z" fill="#313131"/>
<path d="M340.654 85.6283C340.252 86.8334 339.449 87.6368 339.047 88.8419C329.403 82.8165 327.394 74.7826 334.225 65.5437C334.627 72.3725 332.216 79.603 338.645 84.0216V83.6199C339.047 84.4233 339.851 85.2267 340.654 85.6283Z" fill="#444444"/>
<path d="M350.298 54.6979C349.092 54.6979 347.485 54.6979 346.28 54.6979C345.074 53.4928 343.869 52.2878 341.859 50.2793C346.681 50.2793 348.691 52.6895 350.298 54.6979Z" fill="#646464"/>
<path d="M343.467 61.9284C344.27 61.5267 345.074 60.7233 345.878 60.3217C346.28 60.7233 346.28 60.7234 346.682 61.125C346.28 61.9284 345.476 62.3301 345.074 63.1335C344.27 62.7318 343.869 62.3301 343.467 61.9284Z" fill="#313131"/>
<path d="M584.166 496.158C584.97 449.964 591.801 404.974 610.285 362.395C616.715 347.532 624.35 333.473 634.797 321.02C642.031 312.986 650.067 305.354 658.506 298.927C677.392 284.868 697.484 285.27 717.978 295.714C731.64 302.542 742.088 313.388 750.928 325.841C767.002 348.335 776.646 373.24 783.075 399.752C798.747 466.835 795.934 533.516 774.235 599.393C768.207 617.47 759.769 634.341 748.919 650.007C740.882 661.656 731.238 672.1 719.183 680.134C696.279 695.398 672.168 695.398 650.067 679.33C639.619 671.698 630.779 662.058 623.546 651.614C606.669 627.11 597.427 599.394 591.399 570.873C586.175 545.567 584.166 520.662 584.166 496.158Z" fill="#FFFEFE"/>
<path d="M1208.62 353.557C1207.42 388.103 1205.81 422.649 1205.81 457.596C1205.81 492.142 1207.82 526.687 1209.02 562.839C1161.2 562.036 1112.18 561.233 1063.16 560.429C1063.16 560.429 1062.75 560.028 1062.75 559.626C1062.75 559.224 1062.35 558.823 1062.75 558.823C1110.17 491.338 1157.19 423.452 1204.6 355.968C1205.41 355.164 1206.21 354.361 1207.01 353.156C1207.42 352.754 1208.22 353.156 1208.62 353.557Z" fill="#FEFBFC"/>
<path d="M1065.57 334.678C1065.97 335.08 1066.37 335.08 1066.77 335.481C1066.37 335.883 1065.97 335.883 1065.57 336.285C1065.97 335.481 1065.57 335.08 1065.57 334.678Z" fill="#646464"/>
<path d="M273.949 346.729C274.752 417.427 275.154 488.124 275.958 560.027C225.326 560.027 175.499 560.027 123.26 560.027C173.489 488.124 222.513 417.025 271.939 346.327C272.341 346.327 273.145 346.729 273.949 346.729Z" fill="#FEFBFD"/>
<path d="M1029 349.942C1028.2 350.746 1027.39 351.147 1026.99 351.951C1027.79 351.147 1028.6 350.746 1029 349.942Z" fill="#FAFAFA"/>
<path d="M344.672 63.1335C345.074 62.3301 345.878 61.9284 346.28 61.125C353.111 61.125 361.549 67.9538 361.549 74.3809C361.549 78.3978 363.157 80.0046 366.773 81.2096C362.755 88.0384 358.335 90.0469 352.307 88.4401C345.878 86.8333 341.859 82.013 341.859 75.1843C342.261 71.1673 343.869 67.1504 344.672 63.1335Z" fill="#F9F9F9"/>
<path d="M340.654 86.0299C339.85 85.2266 339.448 84.4232 338.645 84.0215C339.046 84.4232 339.85 85.2266 340.654 86.0299Z" fill="#F9F9F9"/>
</svg>
